<?xml version="1.0" encoding="UTF-8"?>
<svg id="Layer_2" data-name="Layer 2" xmlns="http://www.w3.org/2000/svg" viewBox="0 0 299.89 290.41">
  <g id="Layer_11" data-name="Layer 11">
    <path d="m292.7,75.18c-1.29,3.14-2.81,6.31-4.55,9.51-1.78,3.3-3.82,6.62-6.14,9.95-.05.01-.08.01-.08.01,0,0-.12.19-.28.51-4.78,6.8-10.7,13.62-17.99,20.35-3.48,3.21-7.27,6.4-11.39,9.56-.03.03-.06.06-.1.08-.44.34-.89.68-1.34,1.02-.02.01-.04.02-.05.03-.1.07-.19.13-.29.2-2.92,1.99-6.78,3.8-11.85,5.04,4.29-.49,8.36-1.61,11.69-3.09-.14,1.12-.08.99-.1,2.06-.45,15.22,8.77,25.36,8.77,25.36l-8.15,8.84c-2.41-.86-6.47-2.14-11.02-2.79-3.26-.47-15.76-.67-22.54-.25-.58.04-1.12.08-1.61.13.21-.19.43-.39.65-.59,1.03-.95,2.09-1.98,3.22-3.11.72-.72,1.42-1.48,2.07-2.27l3.21-3.89c.77-1.13,8.16-3.22,14.91-3.63-5.74-.17-19.63-1.1-44.96,7.48-.56.2-1.59.89-2.12,1.19l-2.96,1.76c-.66.38-1.94,1.25-2.57,1.68-6.66,4.5-9.77,8.8-11.58,10.56,4.91-1.17,15.32-1.22,17.57-.54.33-.02.66.03,1.04.05,1.69.11,4.41-.05,7.67-.89,3.68-.95,6.04-1.77,10.35-5.06.39-.29.79-.6,1.18-.93.21-.17.41-.34.62-.53.3,0,.6-.01.92-.01,7.45.01,22.89,1.21,24.93,2.28.54.27,1.01.57,1.43.87-.49.12-.97.25-1.43.39-12.38,3.54-18.5,10.57-18.8,10.92h-.01s-4.38,4.69-16.55,6.83c-12.18,2.14-18.02-5.7-18.02-5.7l-6.82,1.63-2.99,3.3,3.06,2.69s1.42.02,1.5,0q1.09-.3,3.31-1.23c2.73-1.13,5.34,2.75,5.34,2.75-6.7,4.18-9.36,9.83-9.52,10.18.23-.37,4.04-6.29,10.33-9.44,0,0,10.34,4.47,13.49,4.75,3.25,5-.13,10.29-3.38,12.42-3.14,2.07-12.31,4.87-13.14,5.1.65-.31,11.51-5.39,4.43-5.59-7.3-.2-13.67,6.97-13.67,6.97-2.71.8-5.92.67-5.92.67-2.7,4.26-2.05,11.05-2.05,11.05,0,0,1.69,5.88,4.44,3.27,0,0,26.4-20.57,48.35-20.57,1,0,1.99.04,2.96.13-1.38,10.23,1.42,20.68,8.05,28.59,9.56,11.41,22.14,15.27,22.14,15.27-37.77-2.21-54.41-23.33-54.41-23.33-16.34,10.08-13.36,16.82-18.57,21.79l4.49.2-5.6,3.85s3.9,2.06,6.99,3.11c.25-.09.52-.19.82-.3,1.92-.73,4.7-2.19,6.94-4.96,2.32-2.86,4.05-7.12,3.62-13.43,0,0,.9,1.32,1.88,3.59,1.48,3.44,3.13,9.06,2,15.49-.08.48-.45,1.62-.56,2.1.49-.68.88-1.77.98-2.24,1.31-.56,2.29-1.29,3.34-2.38l1.59-1.64s6.15,3.77,3.03,8.25c-3.11,4.47-20.01,8.95-29.88,4.42,10.48,5.7,20.62,4.79,20.62,4.79,0,0-5.2,5.97-4.36,9.99-14,10.38-45.5,10.61-45.5,10.61v-137.77c18-1.98,32-17.24,32-35.77s-14-33.79-32-35.77v-22.88s20.4-.54,32.12,3.28c34.88-10.08,37.74-47.14,37.74-47.14,0,0,15.46,12.07,2.78,42.95-1.24,3.08-2.78,6.16-4.66,9.2h0c-.94,1.54-1.95,3.06-3.05,4.56-.84,1.15-1.73,2.3-2.69,3.44-.11.13-.22.26-.33.39-.63.75-1.28,1.48-1.96,2.22-.79.87-1.63,1.73-2.49,2.57-.64.64-1.31,1.27-1.99,1.9-.68.63-1.39,1.26-2.11,1.88-.48.42-.97.83-1.47,1.24-1.66,1.38-3.44,2.72-5.32,4.03l-.21.09c2.66-.79,12.04-7.54,17.63-13.2.02,0,.03.03.05.04,5.67,3.18,10.68,6.35,16.18,10.63C290.78,69.92,291.67,0,291.67,0c0,0,17.79,34.65,1.03,75.18Z"/>
    <path d="m113.78,116.87c0,18.64,14.16,33.98,32.33,35.81v137.73s-31.5-.23-45.5-10.61c.84-4.02-4.36-9.99-4.36-9.99,0,0,10.14.91,20.62-4.79-9.87,4.53-26.77.05-29.88-4.42-3.12-4.48,3.03-8.25,3.03-8.25l1.59,1.64c1.05,1.09,2.03,1.82,3.34,2.38.1.47.49,1.56.98,2.24-.11-.48-.48-1.62-.56-2.1-1.13-6.43.52-12.05,2-15.49.98-2.27,1.88-3.59,1.88-3.59-.43,6.31,1.3,10.57,3.62,13.43,2.24,2.77,5.02,4.23,6.94,4.96.3.11.57.21.82.3,3.09-1.05,6.99-3.11,6.99-3.11l-5.6-3.85,4.49-.2c-5.21-4.97-2.23-11.71-18.57-21.79,0,0-16.64,21.12-54.41,23.33,0,0,12.58-3.86,22.14-15.27,6.63-7.91,9.43-18.36,8.05-28.59.97-.09,1.96-.13,2.96-.13,21.95,0,48.35,20.57,48.35,20.57,2.75,2.61,4.44-3.27,4.44-3.27,0,0,.65-6.79-2.05-11.05,0,0-3.21.13-5.92-.67,0,0-6.37-7.17-13.67-6.97-7.08.2,3.78,5.28,4.43,5.59-.83-.23-10-3.03-13.14-5.1-3.25-2.13-6.63-7.42-3.38-12.42,3.15-.28,13.49-4.75,13.49-4.75,6.29,3.15,10.1,9.07,10.33,9.44-.16-.35-2.82-6-9.52-10.18,0,0,2.61-3.88,5.34-2.75q2.22.93,3.31,1.23c.08.02,1.5,0,1.5,0l3.06-2.69-2.99-3.3-6.82-1.63s-5.84,7.84-18.02,5.7c-12.17-2.14-16.55-6.82-16.55-6.82h-.01c-.3-.36-6.42-7.39-18.8-10.93-.46-.14-.94-.27-1.43-.39.42-.3.89-.6,1.43-.87,2.04-1.07,17.48-2.27,24.93-2.28.32,0,.62.01.92.01.21.19.41.36.62.53.39.33.79.64,1.18.93,4.31,3.29,6.67,4.11,10.35,5.06,3.26.84,5.98,1,7.67.89.38-.02.71-.07,1.04-.05,2.25-.68,12.66-.63,17.57.54-1.81-1.76-4.92-6.06-11.58-10.56-.63-.43-1.91-1.3-2.57-1.68l-2.96-1.76c-.53-.3-1.56-.99-2.12-1.19-25.33-8.58-39.22-7.65-44.96-7.48,6.75.41,14.14,2.5,14.91,3.63l3.21,3.89c.65.79,1.35,1.55,2.07,2.27,1.13,1.13,2.19,2.16,3.22,3.11.22.2.44.4.65.59-.49-.05-1.03-.09-1.61-.13-6.78-.42-19.28-.22-22.54.25-4.55.65-8.61,1.93-11.02,2.79l-8.15-8.84s9.22-10.14,8.77-25.36c-.02-1.07.04-.94-.1-2.06,3.33,1.48,7.4,2.6,11.69,3.09-5.07-1.24-8.93-3.05-11.85-5.04-.1-.07-.19-.13-.29-.2-.01,0-.03-.02-.05-.03-.45-.34-.9-.68-1.34-1.02-.04-.02-.07-.05-.1-.08-4.12-3.16-7.91-6.35-11.39-9.56-7.29-6.73-13.21-13.55-17.99-20.35-.16-.32-.28-.51-.28-.51,0,0-.03,0-.08-.01-2.32-3.33-4.36-6.65-6.14-9.95-1.74-3.2-3.26-6.37-4.55-9.51C-9.57,34.65,8.22,0,8.22,0c0,0,.89,69.92,57.67,86.3,5.5-4.28,10.51-7.45,16.18-10.63.02-.01.03-.03.05-.04,5.59,5.66,14.97,12.41,17.63,13.2l-.21-.09c-1.88-1.31-3.66-2.65-5.32-4.03-.5-.41-.99-.82-1.47-1.24-.72-.62-1.43-1.25-2.11-1.88s-1.35-1.26-1.99-1.9c-.86-.84-1.7-1.7-2.49-2.57-.68-.74-1.33-1.47-1.96-2.22-.11-.13-.22-.26-.33-.39-.96-1.14-1.85-2.29-2.69-3.44-1.1-1.5-2.11-3.02-3.05-4.55h0c-1.88-3.05-3.42-6.13-4.66-9.21-12.68-30.88,2.78-42.95,2.78-42.95,0,0,2.86,37.06,37.74,47.14,11.72-3.82,32.12-3.28,32.12-3.28v22.84c-18.17,1.83-32.33,17.17-32.33,35.81Z"/>
    <path d="m178.12,116.87c0,14.58-11.02,26.6-25.19,28.15-1.03.13-2.09.18-3.15.18-.98,0-1.94-.05-2.89-.15-14.3-1.44-25.45-13.51-25.45-28.19s11.15-26.75,25.45-28.19c.95-.1,1.91-.15,2.89-.15,1.06,0,2.12.06,3.15.18,14.17,1.56,25.19,13.57,25.19,28.15Z"/>
  </g>
</svg>