<?xml version="1.0" encoding="UTF-8"?>
<svg id="Layer_2" data-name="Layer 2" xmlns="http://www.w3.org/2000/svg" viewBox="0 0 124.2 128.76">
  <defs>
    <style>
      .cls-1 {
        fill: #fff;
      }
    </style>
  </defs>
  <g id="Layer_16" data-name="Layer 16">
    <path class="cls-1" d="m88.71,118.52c-7.12,6.37-16.52,10.24-26.82,10.24s-20.19-4.08-27.37-10.74c25.97-8.48,31.18-43.66,31.18-43.66l-7.11-4.33-12.39.37,3.91-5.78,17.1-1.04,6.49,53.34s7.97,1.71,15.01,1.6Z"/>
    <path class="cls-1" d="m124.2,59.48c-2.87,1.55-1.65,12.5-5.12,18.66-3.11,5.53-12.07,7.52-16.99,8.2.04.71.06,1.43.06,2.16,0,4.19-.64,8.23-1.83,12.03l-5.28-4.06-2.11,9.33c-3.56,5.45-12,1.34-12,1.34l-1.69-12.67,19.67-13.3,1.68-1.14-1.62-1.04-6.38-4.09-1.89-1.21-2.56,3.03-9.72,11.54-3.35-25.15,3.63-.22,13.56-.82,9.81-.6v-8.78l-17.88,1.45c4.92-5.16,10.63-10.27,10.63-10.27,8.67-8,2.92-21.46.5-26.83-3.74-8.29,2.98-12.46,3.32-12.66-4.02,5.84.8,10.33.8,10.33,16.55,15.83,11.05,35.33,11.05,35.33-3.15,8.57-8.32,15.34-12.8,20.04,1.04,2.01,1.92,4.11,2.6,6.3,3.9-.03,15.78-.68,18-7.6,1.87-5.84,2.41-8.13,5.91-9.3Z"/>
    <path class="cls-1" d="m83.03,54.24l-40.45,3.28-7.08.58-10.13.82-2.42,7.25c-3.49-4.29-6.98-9.7-9.35-16.13,0,0-5.5-19.5,11.04-35.33,0,0,4.83-4.49.8-10.33.34.2,7.07,4.37,3.33,12.66-2.43,5.37-8.18,18.83.5,26.83,0,0,5.55,5.38,10.98,10.68,6.24-3.99,13.67-6.31,21.64-6.31s15,2.2,21.14,6Z"/>
    <path class="cls-1" d="m46.14,97.03c-3.46,4.66-8.76,9.87-16.83,15.13-4.83-6.65-7.68-14.82-7.68-23.66,0-.75.02-1.49.06-2.22-4.99-.73-13.54-2.76-16.57-8.14-3.46-6.16-2.25-17.11-5.12-18.66,3.5,1.17,4.04,3.46,5.92,9.3,2.15,6.68,13.29,7.52,17.57,7.59.71-2.26,1.62-4.43,2.71-6.5-.34-.36-.69-.73-1.04-1.12l2.04-.69,12.28-4.14s-1.67,6.01-5.96,12.62c-2.06,3.17-4.72,6.48-8.1,9.33-.3.26-.61.51-.92.75-.51.41-1.03.8-1.57,1.18l4.89,9.78,6.49-9.6,11.83,9.05Z"/>
    <path class="cls-1" d="m88.06,119.02c-6.85,0-14.38-1.6-14.46-1.62l-.35-.08-6.48-53.23-16.38,1-3.23,4.77,11.56-.34,7.52,4.58-.05.33c-.05.35-5.56,35.58-31.52,44.06l-.35.03-7.65-5.31.65-.4c.51-.31,1.01-.63,1.5-.95l.21-.13c6.97-4.54,12.48-9.46,16.4-14.61l-11.02-8.43-6.67,9.87-5.46-10.93.35-.25c.53-.37,1.04-.76,1.54-1.16.31-.24.61-.48.91-.74,2.96-2.5,5.65-5.6,8.01-9.22,3.22-4.97,4.97-9.64,5.61-11.56l-17.8,6.01,4.09-12.27,77.57-6.3v9.79l-26.93,1.64,3.13,23.5,11.83-14.04,10.9,6.99-2.31,1.57-19.41,13.13,1.61,12.09c1.36.59,8.09,3.22,11.07-1.2l2.26-10,9.36,7.2-.02.27c-.03.3-.7,7.33-5.3,12.93-1.58,1.93-4.96,2.94-10.04,3.01-.22,0-.44,0-.66,0Zm-13.9-2.52c1.61.32,8.48,1.63,14.55,1.52,4.71-.07,7.92-.98,9.28-2.65,3.91-4.76,4.88-10.79,5.05-12.12l-7.68-5.91-2.01,8.73c-3.76,5.75-12.55,1.56-12.64,1.52l-.24-.12-1.77-13.24,20.98-14.19-8.88-5.69-12.73,15.1-3.57-26.8,27.07-1.64v-7.77l-75.83,6.16-3.25,9.73,17.72-5.98-.25.91c-.02.06-1.74,6.16-6.02,12.76-2.41,3.71-5.17,6.89-8.2,9.44-.3.26-.62.52-.94.76-.4.32-.81.64-1.24.94l4.32,8.63,6.31-9.33,12.64,9.67-.29.4c-4.01,5.4-9.71,10.53-16.96,15.25l-.21.14c-.29.19-.58.37-.87.56l6.06,4.21c23.89-7.96,29.97-39.32,30.59-42.87l-6.69-4.08-13.22.4,4.6-6.79,17.82-1.08,6.5,53.45Zm-22.63-28.09l-14.36-5.53,4.69-6.93,11.2,3.46.04.32c.02.13.36,3.26-1.4,8.19l-.17.48Zm-12.83-6.01l12.23,4.71c1.2-3.56,1.23-6.08,1.2-6.93l-9.86-3.05-3.57,5.27Z"/>
    <path class="cls-1" d="m51.22,87.76l-13.3-5.12,4.13-6.1,10.54,3.26s.37,3.09-1.37,7.96Z"/>
    <path class="cls-1" d="m87.01,27.53c-3.36,9.31-12.27,15.97-22.74,15.97-13.35,0-24.17-10.82-24.17-24.17,0-7.9,3.8-14.92,9.67-19.33-.93,2.56-1.43,5.32-1.43,8.2,0,13.35,10.82,24.17,24.17,24.17,5.44,0,10.47-1.8,14.5-4.84Z"/>
  </g>
</svg>