<?xml version="1.0" encoding="UTF-8"?>
<svg id="Layer_1" data-name="Layer 1" xmlns="http://www.w3.org/2000/svg" viewBox="0 0 24 24">
  <defs>
    <style>
      .cls-1 {
        fill: #fff;
      }
    </style>
  </defs>
  <path class="cls-1" d="m6.19,8.72c.44-.44.93-.8,1.44-1.09,2.89-1.59,6.59-.74,8.44,2.07l-2.25,2.24c-.64-1.47-2.24-2.31-3.83-1.95-.6.13-1.17.43-1.63.9l-4.3,4.31c-1.31,1.31-1.31,3.43,0,4.74s3.43,1.31,4.74,0l1.33-1.33c1.21.48,2.5.67,3.78.58l-2.93,2.93c-2.51,2.51-6.58,2.51-9.09,0s-2.51-6.58,0-9.09c0,0,4.3-4.31,4.3-4.31ZM13.02,1.88l-2.93,2.93c1.28-.1,2.57.1,3.78.57l1.33-1.33c1.31-1.31,3.43-1.31,4.74,0s1.31,3.43,0,4.74l-4.31,4.31c-1.31,1.31-3.44,1.3-4.74,0-.3-.3-.56-.68-.73-1.05l-2.25,2.24c.24.36.48.67.8.98.81.81,1.85,1.42,3.04,1.7,1.54.37,3.19.17,4.61-.62.52-.29,1-.65,1.44-1.09l4.3-4.31c2.51-2.51,2.51-6.58,0-9.09-2.51-2.51-6.58-2.51-9.09,0Z"/>
</svg>