<?xml version="1.0" encoding="UTF-8"?>
<svg id="Layer_2" data-name="Layer 2" xmlns="http://www.w3.org/2000/svg" viewBox="0 0 125.04 134.14">
  <g id="Layer_3" data-name="Layer 3">
    <path d="m119.13,64.4c-2.22,6.92-14.1,7.57-18,7.6-.68-2.19-1.56-4.29-2.6-6.3,4.48-4.7,9.65-11.47,12.8-20.04,0,0,5.5-19.5-11.05-35.33,0,0-4.82-4.49-.8-10.33-.34.2-7.06,4.37-3.32,12.66,2.42,5.37,9.22,20.05.55,28.05,0,0-4.5,4.62-11.15,8.5,0,0-12.04,5.37-22.62,5.12-.14,0-.28,0-.42,0-.14,0-.28,0-.42,0-10.58.25-22.62-5.12-22.62-5.12-6.65-3.88-11.15-8.5-11.15-8.5-8.67-8-1.87-22.68.55-28.05C32.62,4.37,25.9.2,25.56,0c4.02,5.84-.8,10.33-.8,10.33-16.55,15.83-11.05,35.33-11.05,35.33,3.15,8.57,8.32,15.34,12.8,20.04-1.04,2.01-1.92,4.11-2.6,6.3-3.9-.03-15.78-.68-18-7.6-1.87-5.84-2.41-8.13-5.91-9.3,2.87,1.55,1.65,12.5,5.12,18.66,3.11,5.53,12.07,7.52,16.99,8.2-.37.72,3.66,27.1,39.99,51.87l.42.31.42-.31c36.33-24.77,40.36-51.15,39.99-51.87,4.92-.68,13.88-2.67,16.99-8.2,3.47-6.16,2.25-17.11,5.12-18.66-3.5,1.17-4.04,3.46-5.91,9.3Zm-60.84,2.84c3.01-.93,6.21-.98,9.25-.13,5.83,1.62,15.17,5.02,15.17,10.15,0,4.61-7.31,10.6-13.04,14.59-4.01,2.79-9.35,2.73-13.27-.18-5.39-3.99-12.16-9.81-12.19-13.85-.03-5.35,8.52-8.86,14.08-10.58Zm-20.33,36.05c-.83,1.38-.45,3.06-.45,3.06,0,0-2.42-3.22-2.25-7.35-.55,1.17-.8,3.29-.8,3.29-4.08-6.87-3.33-12.33-3.33-12.33.07,3.13,1.65,5.48,2.4,6.65.29-1.92,1.18-3.82,1.18-3.82.55,3.71,2.25,5.3,2.25,5.3,0,0-.25-1,.96-3.59.04,4.63,1.25,6.5,1.25,6.5,0,0-.16-1.61,1.71-4.66-1.37,10.37,2.04,16.39,1.96,16.48,0,0-4.08-2.57-4.88-9.53Zm9,8c-.07,4.25,1.46,7.46,1.46,7.46,0,0-7.83-7.16-6-21,0,0,1.5,5.96,3.34,6.34.46-3.09,2.62-4.13,2.62-4.13-2.45,6.5,1.92,15.58,1.92,15.58,0,0-2.56-.68-3.34-4.25Zm9.87,5.42s-1.41,4.38-.28,8.11c-9.18-10.37-6.25-22.28-6.25-22.28,2.04,7.59,3.79,8.59,3.79,8.59-.19-2.59,2.08-6,2.08-6-.5,4.54,3.71,10,3.71,10,.79-4.54,3.92-7.12,3.92-7.12-2.14,6.29-.54,18.65-.54,18.65,0,0-6.58-3.22-6.43-9.95Zm16.92-1.04c-.04.15-.08.3-.12.45-.11.43-.22.85-.34,1.28-.45,1.55-.96,3.07-1.54,4.46-.09.18-.16.36-.25.53,0-.02.01-.03.01-.05.01-.05.03-.12.05-.19.16-.76.29-2.49-1.01-4.81-.39,4.66-2.73,7.05-2.73,7.05.36-1.72-.16-4.11-.16-4.11,0,0-.72,5.32-3.94,7.05.11-.37,2.51-7.94,1.11-16.85,0,0,2.15,2.79,2.32,4.8,0,0,2.06-2.55,1.51-6.05,0,0,.83,1.83,1.28,4.72,1.16-2.22,2.77-8,2.77-8,0,0,.84,2.55-.39,5.66,2.3-2.13,3.42-7.68,3.55-8.37,0,.06-.02.16-.03.3s-.03.31-.06.52c-.03.33-.07.73-.14,1.2-.06.55-.14,1.18-.25,1.89-.04.3-.09.62-.14.95-.05.35-.11.72-.17,1.09-.01.01-.01.02-.01.03-.07.44-.15.9-.23,1.36-.18.99-.38,2.03-.62,3.09-.15.66-.3,1.33-.47,2Zm3.76,1.98c.42-.55,1.09-1.89,1.04-4.83-.78,3.57-4.11,6.68-4.11,6.68,0,0,5.73-12.39,3.27-18.89,0,0,2.04,2.81,2.5,5.89.78-.77,2.97-9.52,2.97-9.52,1.61,12.11-4.2,19.12-5.67,20.67Zm13.63-17.13s-.25-2.13-.79-3.29c.17,4.12-2.25,7.34-2.25,7.34,0,0,.37-1.68-.46-3.05-.79,6.95-3.76,9.98-3.76,9.98-.08-.09,2.22-6.57.84-16.94,1.88,3.05,1.71,4.67,1.71,4.67,0,0,1.21-1.88,1.25-6.5,1.22,2.58.97,3.58.97,3.58,0,0,1.7-1.58,2.24-5.29,0,0,.89,1.9,1.18,3.81.75-1.16,2.33-3.52,2.4-6.65,0,0,.75,5.46-3.33,12.34Z"/>
    <path d="m63.98,73.32l-1.03-.62-1.03.62c-.46.27-4.5,2.81-4.5,6.45s4.04,6.18,4.5,6.46l1.03.61,1.03-.61c.46-.28,4.51-2.81,4.51-6.46s-4.05-6.18-4.51-6.45Zm-1.03,8.72c-.8-.71-1.53-1.6-1.53-2.27s.73-1.56,1.53-2.26c.81.7,1.54,1.6,1.54,2.26s-.73,1.57-1.54,2.27Z"/>
    <path d="m63.38,79.77c0,.24-.19.44-.43.44s-.43-.2-.43-.44.19-.43.43-.43.43.2.43.43Z"/>
  </g>
</svg>