<?xml version="1.0" encoding="UTF-8"?>
<svg xmlns="http://www.w3.org/2000/svg" viewBox="0 0 1006.999999999998181 1007.000012397763385">
  <defs>
    <style>
      .cls-1 {
        fill: #fff;
      }
    </style>
  </defs>
  <g id="moon">
    <g id="moon-2" data-name="moon">
      <g id="moon-3" data-name="moon">
        <path class="cls-1" d="m658.95001220703125,226.000006198880328c-22.29998779296875,61.70001220703125-81.29998779296875,105.79998779296875-150.70001220703125,105.79998779296875-88.5,0-160.20001220703125-71.70001220703125-160.20001220703125-160.199996948243097,0-52.400001525877997,25.20001220703125-98.900001525877997,64.100006103515625-128.100006103514716-6.20001220703125,17-9.5,35.300003051757812-9.5,54.300003051757812,0,88.5,71.699981689453125,160.20001220703125,160.199981689453125,160.20001220703125,36,0,69.4000244140625-11.899993896484375,96.10003662109375-32h0Z"/>
      </g>
    </g>
  </g>
  <g id="face">
    <g id="face-2" data-name="face">
      <path class="cls-1" d="m226.03997802734375,615.760015964505328c0,.04998779296875.010009765625.0899658203125.010009765625.1400146484375-32.5999755859375-4.5-92-17.70001220703125-112.5999755859375-54.300048828125-23-40.79998779296875-14.9000244140625-113.39996337890625-33.9000244140625-123.699951171875.77001953125.25994873046875,1.52001953125.52996826171875,2.25.79998779296875,17.4000244140625,12.77996826171875,10.16998291015625,83.02996826171875,32.6500244140625,122.89996337890625,20.38995361328125,36.23004150390625,78.78997802734375,49.530029296875,111.5899658203125,54.1600341796875Z"/>
      <path class="cls-1" d="m171.45001220703125,376.400030612942828c18.8499755859375,51.47998046875,48.78997802734375,93.17999267578125,76.3399658203125,123.69000244140625-27.83001708984375-30.61004638671875-58.260009765625-72.69000244140625-77.3399658203125-124.7900390625,0,0-36.4000244140625-129.20001220703125,73.199951171875-234.20001220703125,0,0,32-29.79998779296875,5.300048828125-68.5.78997802734375.47003173828125,7.1199951171875,4.3800048828125,13.699951171875,11.780029296875-6.2099609375-6.67999267578125-11.949951171875-10.22998046875-12.699951171875-10.67999267578125,26.699951171875,38.70001220703125-5.300048828125,68.5-5.300048828125,68.5-109.699951171875,105-73.199951171875,234.20001220703125-73.199951171875,234.20001220703125Z"/>
      <path class="cls-1" d="m495.14996337890625,962.500006198880328l58.9000244140625-45.42999267578125c-18.97998046875,15.47998046875-37.41998291015625,30.96002197265625-60.0999755859375,46.42999267578125l-.050048828125-.03997802734375,1.25-.96002197265625Z"/>
      <path class="cls-1" d="m369.64996337890625,588.299993991849078c-.199951171875-35.5,56.5-58.70001220703125,93.300048828125-70.0999755859375,20-6.20001220703125,41.199951171875-6.5,61.29998779296875-.9000244140625,38.70001220703125,10.79998779296875,100.5999755859375,33.29998779296875,100.5999755859375,67.29998779296875,0,30.5-48.5,70.20001220703125-86.39996337890625,96.70001220703125-26.60003662109375,18.5-62,18.10003662109375-88-1.20001220703125-35.70001220703125-26.39996337890625-80.60003662109375-65-80.800048828125-91.79998779296875Z"/>
      <polygon class="cls-1" points="601.25 754.500006198880328 608.04998779296875 785.000006198880328 600.45001220703125 776.599981784817828 588.25 812.200018405911578 574.54998779296875 794.099981784817828 556.04998779296875 837.799993991849078 539.8499755859375 823.500006198880328 519.3499755859375 871.500006198880328 494.54998779296875 840.500006198880328 471.3499755859375 871.900030612942828 449.64996337890625 823.700018405911578 435.3499755859375 839.099981784817828 415.25 794.500006198880328 403.04998779296875 814.500006198880328 388.75 776.700018405911578 381.8499755859375 786.500006198880328 390.54998779296875 755.799993991849078 402.25 791.500006198880328 416.8499755859375 772.900030612942828 434.25 809.400030612942828 450.95001220703125 788.200018405911578 477.04998779296875 816.000006198880328 495.8499755859375 792.099981784817828 513.75 816.000006198880328 540.95001220703125 787.700018405911578 556.95001220703125 808.200018405911578 575.45001220703125 771.799993991849078 588.8499755859375 789.299993991849078 601.25 754.500006198880328"/>
      <path class="cls-1" d="m609.22998046875,868.260015964505328c2.20001220703125-2.1500244140625,4.3800048828125-4.2900390625,6.530029296875-6.42999267578125-2.1500244140625,2.14996337890625-4.32000732421875,4.28997802734375-6.530029296875,6.42999267578125Z"/>
      <path class="cls-1" d="m615.760009765625,861.830023288724078c2.13995361328125-2.1300048828125,4.25994873046875-4.27001953125,6.3499755859375-6.3900146484375-2.08001708984375,2.1300048828125-4.20001220703125,4.260009765625-6.3499755859375,6.3900146484375Z"/>
      <path class="cls-1" d="m622.41998291015625,855.130011081692828c9.260009765625-9.47003173828125,17.94000244140625-18.8499755859375,26.05999755859375-28.09002685546875-8.1099853515625,9.25-16.78997802734375,18.6199951171875-26.05999755859375,28.09002685546875Z"/>
      <path class="cls-1" d="m648.47998046875,827.039984226224078c30.989990234375-35.29998779296875,53.83001708984375-68.66998291015625,70.530029296875-98.00994873046875-16.67999267578125,29.3499755859375-39.52001953125,62.719970703125-70.530029296875,98.00994873046875Z"/>
      <path class="cls-1" d="m455.53997802734375,431.760015964505328c-58.6400146484375-7.45001220703125-113.28997802734375-31.8699951171875-113.28997802734375-31.96002197265625-44.10003662109375-25.70001220703125-73.9000244140625-56.29998779296875-73.9000244140625-56.29998779296875-2.1400146484375-1.969970703125-4.1300048828125-4-5.989990234375-6.09002685546875,1.57000732421875,1.70001220703125,3.22998046875,3.37005615234375,4.989990234375,4.99005126953125,0,0,29.79998779296875,30.5999755859375,73.9000244140625,56.29998779296875,0,0,79.79998779296875,35.5999755859375,149.89996337890625,33.89996337890625.9000244140625,0,1.9000244140625.10003662109375,2.800048828125,0,.89996337890625.10003662109375,1.89996337890625,0,2.79998779296875,0,70.0999755859375,1.70001220703125,149.89996337890625-33.89996337890625,149.89996337890625-33.89996337890625,37.9000244140625-22.09002685546875,65.24005126953125-47.7900390625,72.1800537109375-54.58001708984375-4.45001220703125,4.45001220703125-32.86004638671875,32.1199951171875-73.280029296875,55.67999267578125.09002685546875.09002685546875-54.6300048828125,24.510009765625-113.280029296875,31.95001220703125-4.37994384765625.05999755859375-8.8499755859375.17999267578125-13.41998291015625.3499755859375h-.0999755859375c-4.4000244140625.300048828125-8.79998779296875.5-13.10003662109375.60003662109375-3.0999755859375.0999755859375-6.0999755859375.0999755859375-9.199951171875,0h-5.4000244140625c-3,.0999755859375-6.0999755859375.0999755859375-9.20001220703125,0-4.29998779296875-.10003662109375-8.70001220703125-.29998779296875-13.0999755859375-.60003662109375h-.10003662109375c-4.4599609375-.16998291015625-8.8299560546875-.27996826171875-13.1099853515625-.3399658203125Z"/>
      <path class="cls-1" d="m719.0999755859375,343.849981784817828c.09002685546875-.0899658203125.17999267578125-.17999267578125.260009765625-.25994873046875-.04998779296875.05999755859375-.1400146484375.13995361328125-.260009765625.25994873046875Z"/>
      <path class="cls-1" d="m722.47998046875,340.560003757474078c-.95001220703125.97998046875-1.95001220703125,1.94000244140625-2.97998046875,2.8900146484375.69000244140625-.67999267578125,1.04998779296875-1.04998779296875,1.04998779296875-1.04998779296875.65997314453125-.61004638671875,1.29998779296875-1.22003173828125,1.92999267578125-1.84002685546875Z"/>
      <path class="cls-1" d="m732.57000732421875,508.130011081692828c6.88995361328125,13.28997802734375,12.67999267578125,27.16998291015625,17.17999267578125,41.760009765625h-.20001220703125c-4.47998046875-14.530029296875-10.25-28.3699951171875-17.1099853515625-41.6199951171875.03997802734375-.0400390625.0799560546875-.09002685546875.1300048828125-.1400146484375Z"/>
      <path class="cls-1" d="m719.010009765625,729.030035495755328c.98797607421875-1.73663330078125,1.952880859375-3.4581298828125,2.8983154296875-5.16619873046875-.9461669921875,1.70855712890625-1.9095458984375,3.42901611328125-2.8983154296875,5.16619873046875Z"/>
      <path class="cls-1" d="m724.83245849609375,718.505316257474078c27.72003173828125-51.5653076171875,35.9520263671875-88.97576904296875,36.91754150390625-99.60528564453125.0999755859375-.800048828125.0999755859375-1.4000244140625.0999755859375-1.9000244140625,0-.3800048828125,0-.6300048828125-.01995849609375-.82000732421875.7078857421875,4.2757568359375-5.82318115234375,44.3594970703125-36.99755859375,102.3253173828125Z"/>
      <path class="cls-1" d="m724.83245849609375,718.505316257474078c-.009765625.0181884765625-.0196533203125.03643798828125-.0294189453125.05462646484375.00982666015625-.0181884765625.01959228515625-.03643798828125.0294189453125-.05462646484375Z"/>
      <path class="cls-1" d="m722.01507568359375,723.671881198880328c-.0352783203125.06378173828125-.0714111328125.12811279296875-.10675048828125.19195556640625.03533935546875-.0638427734375.0714111328125-.128173828125.10675048828125-.19195556640625Z"/>
      <path class="cls-1" d="m724.80303955078125,718.559942722317828c-.9088134765625,1.68939208984375-1.83685302734375,3.392578125-2.7879638671875,5.1119384765625.95037841796875-1.71875,1.8797607421875-3.42303466796875,2.7879638671875-5.1119384765625Z"/>
      <path class="cls-1" d="m725.14996337890625,84.380011081692828c6.58001708984375-7.4000244140625,12.9100341796875-11.30999755859375,13.70001220703125-11.780029296875-26.5999755859375,38.70001220703125,5.29998779296875,68.5,5.29998779296875,68.5,109.70001220703125,104.9000244140625,73.20001220703125,234.20001220703125,73.20001220703125,234.20001220703125-18.8399658203125,51.20001220703125-48.489990234375,92.73004150390625-75.90997314453125,123.20001220703125,27.14996337890625-30.3599853515625,56.3900146484375-71.510009765625,74.90997314453125-122.0999755859375,0,0,36.5-129.20001220703125-73.20001220703125-234.20001220703125,0,0-32-29.79998779296875-5.29998779296875-68.5-.75.45001220703125-6.489990234375,4-12.70001220703125,10.67999267578125Z"/>
      <path class="cls-1" d="m908.25,437.900030612942828c-19,10.29998779296875-10.9000244140625,82.89996337890625-33.9000244140625,123.699951171875-20.5999755859375,36.70001220703125-80,49.800048828125-112.5999755859375,54.300048828125,0-.050048828125.010009765625-.09002685546875.010009765625-.1400146484375,32.79998779296875-4.6300048828125,91.199951171875-17.92999267578125,111.5899658203125-54.1600341796875,22.48004150390625-39.8699951171875,15.25-110.1199951171875,32.6500244140625-122.89996337890625.72998046875-.27001953125,1.47998046875-.5400390625,2.25-.79998779296875Z"/>
      <path class="cls-1" d="m225.95001220703125,617.000006198880328c0,.66998291015625.05999755859375,1.6199951171875.199951171875,2.82000732421875-.03997802734375-.33001708984375-.0699462890625-.6300048828125-.0999755859375-.91998291015625-.0999755859375-.800048828125-.0999755859375-1.4000244140625-.0999755859375-1.9000244140625Z"/>
      <path class="cls-1" d="m226.16998291015625,620.020025730130328c.07000732421875.57000732421875.1500244140625,1.19000244140625.25,1.8800048828125-.0999755859375-.6800537109375-.19000244140625-1.30999755859375-.25-1.8800048828125Z"/>
      <path class="cls-1" d="m226.67999267578125,623.530035495755328c.8399658203125,4.969970703125,2.45001220703125,12.219970703125,5.15997314453125,21.39996337890625-2.72998046875-9.17999267578125-4.3299560546875-16.42999267578125-5.15997314453125-21.39996337890625Z"/>
      <path class="cls-1" d="m231.8399658203125,644.929998874661578c1.82000732421875,6.1500244140625,4.1400146484375,13.1600341796875,7.0400390625,20.94000244140625-2.9200439453125-7.77996826171875-5.23004150390625-14.78997802734375-7.0400390625-20.94000244140625Z"/>
      <rect class="cls-1" x="237.95001220703125" y="549.890020847317828" width=".0999755859375" height=".010009765625"/>
      <path class="cls-1" d="m238.8900146484375,665.909979343411578c2.42999267578125,6.47003173828125,5.25994873046875,13.47003173828125,8.55999755859375,20.95001220703125-3.30999755859375-7.469970703125-6.1400146484375-14.469970703125-8.55999755859375-20.95001220703125Z"/>
      <path class="cls-1" d="m247.45001220703125,686.859991550442828c2.64996337890625,5.98004150390625,5.5899658203125,12.280029296875,8.8699951171875,18.84002685546875-3.2900390625-6.55999755859375-6.23004150390625-12.85003662109375-8.8699951171875-18.84002685546875Z"/>
      <path class="cls-1" d="m255.22998046875,508.130011081692828c-.02001953125-.02001953125-.03997802734375-.03997802734375-.05999755859375-.07000732421875,0-.010009765625.010009765625-.02001953125.010009765625-.03997802734375.02001953125.02996826171875.03997802734375.04998779296875.07000732421875.0799560546875-.010009765625.010009765625-.010009765625.02001953125-.02001953125.030029296875Z"/>
      <path class="cls-1" d="m256.32000732421875,705.700018405911578c2.4599609375,4.92999267578125,5.1099853515625,10,7.94000244140625,15.219970703125-2.85003662109375-5.219970703125-5.49005126953125-10.29998779296875-7.94000244140625-15.219970703125Z"/>
      <path class="cls-1" d="m264.510009765625,721.380011081692828c.8699951171875,1.5899658203125,1.75994873046875,3.19000244140625,2.65997314453125,4.79998779296875-.91998291015625-1.6099853515625-1.79998779296875-3.21002197265625-2.65997314453125-4.79998779296875Z"/>
      <path class="cls-1" d="m267.16998291015625,726.179998874661578c3.97003173828125,7.08001708984375,8.29998779296875,14.4100341796875,13.010009765625,21.94000244140625-4.72998046875-7.53997802734375-9.05999755859375-14.8599853515625-13.010009765625-21.94000244140625Z"/>
      <path class="cls-1" d="m433.64996337890625,917.000006198880328l60.25,46.46002197265625-.04998779296875.03997802734375-1.29998779296875-1-59-45.5c-73.8599853515625-59.760009765625-122.1500244140625-118.969970703125-153.3699951171875-168.8800048828125,31.239990234375,49.91998291015625,79.55999755859375,109.1300048828125,153.469970703125,168.8800048828125Z"/>
      <path class="cls-1" d="m554.14996337890625,917.000006198880328c2.1199951171875-1.719970703125,4.23004150390625-3.44000244140625,6.30999755859375-5.16998291015625-1.3599853515625,1.1300048828125-2.72998046875,2.25-4.1099853515625,3.3699951171875-.739990234375.5999755859375-1.469970703125,1.20001220703125-2.20001220703125,1.79998779296875Z"/>
      <path class="cls-1" d="m564.51995849609375,908.469976902005328c2.6700439453125-2.22998046875,5.300048828125-4.449951171875,7.9000244140625-6.67999267578125-2.5999755859375,2.23004150390625-5.22998046875,4.46002197265625-7.9000244140625,6.67999267578125Z"/>
      <path class="cls-1" d="m624.8499755859375,584.599981784817828c0,30.5-48.5,70.20001220703125-86.39996337890625,96.70001220703125-26.60003662109375,18.5-62,18.10003662109375-88-1.20001220703125-35.70001220703125-26.39996337890625-80.60003662109375-65-80.800048828125-91.79998779296875-.199951171875-35.5,56.5-58.70001220703125,93.300048828125-70.0999755859375,20-6.20001220703125,41.199951171875-6.5,61.29998779296875-.9000244140625,38.70001220703125,10.79998779296875,100.5999755859375,33.29998779296875,100.5999755859375,67.29998779296875Z"/>
      <polygon class="cls-1" points="601.25 754.500006198880328 608.04998779296875 785.000006198880328 600.45001220703125 776.599981784817828 588.25 812.200018405911578 574.54998779296875 794.099981784817828 556.04998779296875 837.799993991849078 539.8499755859375 823.500006198880328 519.3499755859375 871.500006198880328 494.54998779296875 840.500006198880328 471.3499755859375 871.900030612942828 449.64996337890625 823.700018405911578 435.3499755859375 839.099981784817828 415.25 794.500006198880328 403.04998779296875 814.500006198880328 388.75 776.700018405911578 381.8499755859375 786.500006198880328 390.54998779296875 755.799993991849078 402.25 791.500006198880328 416.8499755859375 772.900030612942828 434.25 809.400030612942828 450.95001220703125 788.200018405911578 477.04998779296875 816.000006198880328 495.8499755859375 792.099981784817828 513.75 816.000006198880328 540.95001220703125 787.700018405911578 556.95001220703125 808.200018405911578 575.45001220703125 771.799993991849078 588.8499755859375 789.299993991849078 601.25 754.500006198880328"/>
    </g>
  </g>
  <g id="right_orn" data-name="right orn">
    <g id="right_orn-2" data-name="right orn">
      <path class="cls-1" d="m869.04998779296875,499.500006198880328c-14.70001220703125,45.9000244140625-93.5,50.20001220703125-119.29998779296875,50.4000244140625v-.010009765625h-.20001220703125c-4.47998046875-14.530029296875-10.25-28.3699951171875-17.1099853515625-41.6199951171875.03997802734375-.0400390625.0799560546875-.09002685546875.1300048828125-.1400146484375-.010009765625-.010009765625-.010009765625-.02001953125-.02001953125-.030029296875,1.8599853515625-1.94000244140625,3.72998046875-3.94000244140625,5.6199951171875-5.989990234375.47003173828125-.51995849609375.94000244140625-1.02996826171875,1.4100341796875-1.54998779296875.199951171875-.21002197265625.38995361328125-.41998291015625.5799560546875-.6400146484375.42999267578125-.469970703125.85003662109375-.94000244140625,1.280029296875-1.41998291015625,27.14996337890625-30.3599853515625,56.3900146484375-71.510009765625,74.90997314453125-122.0999755859375,0,0,36.5-129.20001220703125-73.20001220703125-234.20001220703125,0,0-32-29.79998779296875-5.29998779296875-68.5-.75.45001220703125-6.489990234375,4-12.70001220703125,10.67999267578125-.1300048828125.1199951171875-.239990234375.25-.3399658203125.3800048828125-11.55999755859375,13.15997314453125-23.6500244140625,37.010009765625-7.96002197265625,71.739990234375,15.9000244140625,35.1500244140625,60.07000732421875,130.45001220703125,5.83001708984375,183.8599853515625-.05999755859375.07000732421875-.1199951171875.1300048828125-.20001220703125.20001220703125-.95001220703125.97998046875-1.95001220703125,1.94000244140625-2.97998046875,2.8900146484375-.02001953125.01995849609375-.030029296875.02996826171875-.04998779296875.04998779296875l-.09002685546875.09002685546875c-.04998779296875.05999755859375-.1400146484375.13995361328125-.260009765625.25994873046875-.07000732421875.08001708984375-.15997314453125.1700439453125-.26995849609375.27001953125-4.45001220703125,4.45001220703125-32.86004638671875,32.1199951171875-73.280029296875,55.67999267578125.09002685546875.09002685546875-54.6300048828125,24.510009765625-113.280029296875,31.95001220703125-4.37994384765625.05999755859375-8.8499755859375.17999267578125-13.41998291015625.3499755859375h-.0999755859375c-4.4000244140625.300048828125-8.79998779296875.5-13.10003662109375.60003662109375-3.0999755859375.0999755859375-6.0999755859375.0999755859375-9.199951171875,0h-5.4000244140625c-3,.0999755859375-6.0999755859375.0999755859375-9.20001220703125,0-4.29998779296875-.10003662109375-8.70001220703125-.29998779296875-13.0999755859375-.60003662109375h-.10003662109375c-4.4599609375-.16998291015625-8.8299560546875-.27996826171875-13.1099853515625-.3399658203125-58.6400146484375-7.45001220703125-113.28997802734375-31.8699951171875-113.28997802734375-31.96002197265625-44.10003662109375-25.70001220703125-73.9000244140625-56.29998779296875-73.9000244140625-56.29998779296875-2.1400146484375-1.969970703125-4.1300048828125-4-5.989990234375-6.09002685546875-49.77996826171875-53.90997314453125-6.91998291015625-146.39996337890625,8.59002685546875-180.90997314453125,15.69000244140625-34.72998046875,3.5999755859375-58.58001708984375-7.96002197265625-71.739990234375-.0999755859375-.1300048828125-.21002197265625-.260009765625-.34002685546875-.3800048828125-6.2099609375-6.67999267578125-11.949951171875-10.22998046875-12.699951171875-10.67999267578125,26.699951171875,38.70001220703125-5.300048828125,68.5-5.300048828125,68.5-109.699951171875,105-73.199951171875,234.20001220703125-73.199951171875,234.20001220703125,18.8499755859375,51.47998046875,48.78997802734375,93.17999267578125,76.3399658203125,123.69000244140625.6099853515625.67999267578125,1.22998046875,1.3499755859375,1.84002685546875,2.01995849609375,1.8599853515625,2.02001953125,3.7099609375,3.989990234375,5.54998779296875,5.9100341796875.02001953125.02996826171875.03997802734375.04998779296875.07000732421875.0799560546875-.010009765625.010009765625-.010009765625.02001953125-.02001953125.030029296875-.02001953125-.02001953125-.03997802734375-.03997802734375-.05999755859375-.07000732421875-.02001953125.030029296875-.02001953125.03997802734375-.02001953125.03997802734375-6.89996337890625,13.4000244140625-12.699951171875,27.2900390625-17.199951171875,41.7900390625h.0999755859375v.010009765625h-.0999755859375v-.010009765625c-26.8699951171875-.32000732421875-103.70001220703125-5.1199951171875-118.20001220703125-50.3900146484375-12.4000244140625-38.70001220703125-16-53.79998779296875-39.20001220703125-61.5999755859375.42999267578125.22998046875.8499755859375.5,1.25.79998779296875,17.4000244140625,12.77996826171875,10.16998291015625,83.02996826171875,32.6500244140625,122.89996337890625,20.38995361328125,36.23004150390625,78.78997802734375,49.530029296875,111.5899658203125,54.1600341796875,0,.04998779296875.010009765625.0899658203125.010009765625.1400146484375,0,.199951171875-.0999755859375.5-.0999755859375,1.0999755859375,0,.66998291015625.05999755859375,1.6199951171875.199951171875,2.82000732421875,0,.07000732421875.010009765625.1300048828125.02001953125.20001220703125.07000732421875.57000732421875.1500244140625,1.19000244140625.25,1.8800048828125.03997802734375.239990234375.08001708984375.5.1199951171875.75994873046875.0400390625.280029296875.08001708984375.57000732421875.1400146484375.87005615234375.8399658203125,4.969970703125,2.45001220703125,12.219970703125,5.15997314453125,21.39996337890625,1.82000732421875,6.1500244140625,4.1400146484375,13.1600341796875,7.0400390625,20.94000244140625,0,.02001953125,0,.030029296875.010009765625.03997802734375,2.42999267578125,6.47003173828125,5.25994873046875,13.47003173828125,8.55999755859375,20.95001220703125,2.64996337890625,5.98004150390625,5.5899658203125,12.280029296875,8.8699951171875,18.84002685546875,2.4599609375,4.92999267578125,5.1099853515625,10,7.94000244140625,15.219970703125.0799560546875.1600341796875.15997314453125.30999755859375.25.46002197265625.8699951171875,1.5899658203125,1.75994873046875,3.19000244140625,2.65997314453125,4.79998779296875,3.97003173828125,7.08001708984375,8.29998779296875,14.4100341796875,13.010009765625,21.94000244140625,31.239990234375,49.91998291015625,79.55999755859375,109.1300048828125,153.469970703125,168.8800048828125l60.25,46.46002197265625,1.25-.96002197265625,58.9000244140625-45.42999267578125.0999755859375-.07000732421875c.73004150390625-.5999755859375,1.46002197265625-1.20001220703125,2.20001220703125-1.79998779296875,1.3800048828125-1.1199951171875,2.75-2.239990234375,4.1099853515625-3.3699951171875,1.36004638671875-1.1199951171875,2.72003173828125-2.239990234375,4.05999755859375-3.36004638671875,2.6700439453125-2.22998046875,5.300048828125-4.449951171875,7.9000244140625-6.67999267578125,2.6400146484375-2.25,5.239990234375-4.5,7.79998779296875-6.75994873046875,1.27001953125-1.12005615234375,2.5400390625-2.23004150390625,3.7900390625-3.35003662109375,2.72998046875-2.41998291015625,5.41998291015625-4.8499755859375,8.07000732421875-7.27001953125,1.17999267578125-1.0799560546875,2.3599853515625-2.15997314453125,3.51995849609375-3.239990234375,4.66998291015625-4.32000732421875,9.21002197265625-8.6199951171875,13.6300048828125-12.90997314453125,2.20001220703125-2.1500244140625,4.3800048828125-4.2900390625,6.530029296875-6.42999267578125,2.13995361328125-2.1300048828125,4.25994873046875-4.27001953125,6.3499755859375-6.3900146484375.0999755859375-.1099853515625.20001220703125-.21002197265625.30999755859375-.30999755859375,9.260009765625-9.47003173828125,17.94000244140625-18.8499755859375,26.05999755859375-28.09002685546875,30.989990234375-35.29998779296875,53.83001708984375-68.66998291015625,70.530029296875-98.00994873046875,32.40997314453125-56.97003173828125,41.7099609375-98.7900390625,42.739990234375-110.1300048828125.0999755859375-.800048828125.0999755859375-1.4000244140625.0999755859375-1.9000244140625,0-.3800048828125,0-.6300048828125-.01995849609375-.82000732421875-.010009765625-.010009765625-.010009765625-.02001953125-.010009765625-.02996826171875,0-.030029296875-.010009765625-.05999755859375-.02001953125-.09002685546875-.010009765625-.05999755859375-.030029296875-.1099853515625-.04998779296875-.15997314453125,0-.050048828125.010009765625-.09002685546875.010009765625-.1400146484375,32.79998779296875-4.6300048828125,91.199951171875-17.92999267578125,111.5899658203125-54.1600341796875,22.48004150390625-39.8699951171875,15.25-110.1199951171875,32.6500244140625-122.89996337890625-21.20001220703125,8.02996826171875-24.96002197265625,23.3900146484375-36.95001220703125,60.79998779296875Zm-268.5999755859375,277.0999755859375l-12.20001220703125,35.60003662109375-13.70001220703125-18.10003662109375-18.5,43.70001220703125-16.20001220703125-14.29998779296875-20.5,48-24.79998779296875-31-23.20001220703125,31.4000244140625-21.70001220703125-48.20001220703125-14.29998779296875,15.39996337890625-20.0999755859375-44.5999755859375-12.20001220703125,20-14.29998779296875-37.79998779296875-6.9000244140625,9.79998779296875,8.70001220703125-30.70001220703125,11.70001220703125,35.70001220703125,14.5999755859375-18.5999755859375,17.4000244140625,36.5,16.70001220703125-21.20001220703125,26.0999755859375,27.79998779296875,18.79998779296875-23.9000244140625,17.9000244140625,23.9000244140625,27.20001220703125-28.29998779296875,16,20.5,18.5-36.4000244140625,13.39996337890625,17.5,12.4000244140625-34.79998779296875,6.79998779296875,30.5-7.5999755859375-8.4000244140625Zm-62-95.29998779296875c-26.60003662109375,18.5-62,18.10003662109375-88-1.20001220703125-35.70001220703125-26.39996337890625-80.60003662109375-65-80.800048828125-91.79998779296875-.199951171875-35.5,56.5-58.70001220703125,93.300048828125-70.0999755859375,20-6.20001220703125,41.199951171875-6.5,61.29998779296875-.9000244140625,38.70001220703125,10.79998779296875,100.5999755859375,33.29998779296875,100.5999755859375,67.29998779296875,0,30.5-48.5,70.20001220703125-86.39996337890625,96.70001220703125Z"/>
      <path class="cls-1" d="m722.67999267578125,340.359991550442828c52.52996826171875-53.6199951171875,8.8599853515625-147.8499755859375-6.83001708984375-182.760009765625-16.1400146484375-35.719970703125-2.8900146484375-59.92999267578125,8.96002197265625-72.8399658203125-11.55999755859375,13.15997314453125-23.6500244140625,37.010009765625-7.96002197265625,71.739990234375,15.9000244140625,35.1500244140625,60.07000732421875,130.45001220703125,5.83001708984375,183.8599853515625Z"/>
      <path class="cls-1" d="m732.54998779296875,508.099981784817828c1.8599853515625-1.94000244140625,3.72998046875-3.94000244140625,5.6199951171875-5.989990234375-1.8800048828125,2.05999755859375-3.75,4.07000732421875-5.5999755859375,6.02001953125-.010009765625-.010009765625-.010009765625-.02001953125-.02001953125-.030029296875Z"/>
    </g>
  </g>
  <g id="right_small_orn" data-name="right small orn">
    <g id="right_small_orn-2" data-name="right small orn">
      <path class="cls-1" d="m907.25,437.900030612942828c-.42999267578125.22998046875-.85003662109375.5-1.25.79998779296875-21.20001220703125,8.02996826171875-24.96002197265625,23.3900146484375-36.95001220703125,60.79998779296875-14.70001220703125,45.9000244140625-93.5,50.20001220703125-119.29998779296875,50.4000244140625v-.010009765625c26.77996826171875-.29998779296875,103.78997802734375-5.07000732421875,118.29998779296875-50.3900146484375,12.4000244140625-38.70001220703125,16-53.79998779296875,39.20001220703125-61.5999755859375Z"/>
    </g>
  </g>
  <g id="right_orn-3" data-name="right orn">
    <g id="right_orn-4" data-name="right orn">
      <path class="cls-1" d="m255.17999267578125,508.020025730130328c.02001953125.02996826171875.03997802734375.04998779296875.07000732421875.0799560546875-.010009765625.010009765625-.010009765625.02001953125-.02001953125.030029296875-.02001953125-.02001953125-.03997802734375-.03997802734375-.05999755859375-.07000732421875-1.83001708984375-1.92999267578125-3.67999267578125-3.90997314453125-5.53997802734375-5.95001220703125,1.8599853515625,2.02001953125,3.7099609375,3.989990234375,5.54998779296875,5.9100341796875Z"/>
      <path class="cls-1" d="m271.95001220703125,157.599981784817828c-15.4100341796875,34.280029296875-57.7900390625,125.75-9.59002685546875,179.80999755859375-49.77996826171875-53.90997314453125-6.91998291015625-146.39996337890625,8.59002685546875-180.90997314453125,15.69000244140625-34.72998046875,3.5999755859375-58.58001708984375-7.96002197265625-71.739990234375,11.8499755859375,12.90997314453125,25.0999755859375,37.1199951171875,8.96002197265625,72.8399658203125Z"/>
    </g>
  </g>
  <g id="left_small_orn" data-name="left small orn">
    <g id="left_small_orn-2" data-name="left small orn">
      <rect class="cls-1" x="237.95001220703125" y="549.890020847317828" width=".0999755859375" height=".010009765625"/>
    </g>
  </g>
  <g id="mouth">
    <g id="mouth-2" data-name="mouth">
      <g id="Layer_7" data-name="Layer 7">
        <g id="Layer_9" data-name="Layer 9">
          <polygon points="608.04998779296875 785.000006198880328 600.45001220703125 776.599981784817828 588.25 812.200018405911578 574.54998779296875 794.099981784817828 556.04998779296875 837.799993991849078 539.8499755859375 823.500006198880328 519.3499755859375 871.500006198880328 494.54998779296875 840.500006198880328 471.3499755859375 871.900030612942828 449.64996337890625 823.700018405911578 435.3499755859375 839.099981784817828 415.25 794.500006198880328 403.04998779296875 814.500006198880328 388.75 776.700018405911578 381.8499755859375 786.500006198880328 390.54998779296875 755.799993991849078 402.25 791.500006198880328 416.8499755859375 772.900030612942828 434.25 809.400030612942828 450.95001220703125 788.200018405911578 477.04998779296875 816.000006198880328 495.8499755859375 792.099981784817828 513.75 816.000006198880328 540.95001220703125 787.700018405911578 556.95001220703125 808.200018405911578 575.45001220703125 771.799993991849078 588.8499755859375 789.299993991849078 601.25 754.500006198880328 608.04998779296875 785.000006198880328"/>
        </g>
      </g>
    </g>
  </g>
  <g id="eye_black" data-name="eye black">
    <g id="eye_black-2" data-name="eye black">
      <path d="m624.8499755859375,584.599981784817828c0,30.5-48.5,70.20001220703125-86.39996337890625,96.70001220703125-26.60003662109375,18.5-62,18.10003662109375-88-1.20001220703125-35.70001220703125-26.39996337890625-80.60003662109375-65-80.800048828125-91.79998779296875-.199951171875-35.5,56.5-58.70001220703125,93.300048828125-70.0999755859375,20-6.20001220703125,41.199951171875-6.5,61.29998779296875-.9000244140625,38.70001220703125,10.79998779296875,100.5999755859375,33.29998779296875,100.5999755859375,67.29998779296875Z"/>
    </g>
  </g>
  <g id="eye_iside" data-name="eye iside">
    <g id="eye_iside-2" data-name="eye iside">
      <path class="cls-1" d="m496.75,601.200018405911578c0,1.5999755859375-1.299987792967841,2.9000244140625-2.799987792967841,2.9000244140625s-2.799987792969659-1.29998779296875-2.799987792969659-2.9000244140625,1.299987792969659-2.79998779296875,2.799987792969659-2.79998779296875,2.799987792967841,1.29998779296875,2.799987792967841,2.79998779296875Z"/>
      <path class="cls-1" d="m493.949981689453125,648.099981784817828l-6.79998779296875-4.0999755859375c-3.100006103515625-1.79998779296875-29.899993896484375-18.5999755859375-29.899993896484375-42.79998779296875s26.79998779296875-41,29.899993896484375-42.79998779296875l6.79998779296875-4.0999755859375,6.79998779296875,4.0999755859375c3.100006103515625,1.79998779296875,29.899993896484375,18.5999755859375,29.899993896484375,42.79998779296875s-26.79998779296875,40.9000244140625-29.899993896484375,42.79998779296875l-6.79998779296875,4.0999755859375h0Zm0-61.79998779296875c-5.399993896484375,4.5999755859375-10.20001220703125,10.5999755859375-10.20001220703125,15s4.79998779296875,10.29998779296875,10.20001220703125,15c5.399993896484375-4.5999755859375,10.20001220703125-10.5999755859375,10.20001220703125-15s-4.899993896484375-10.39996337890625-10.20001220703125-15Z"/>
    </g>
  </g>
</svg>