<?xml version="1.0" encoding="UTF-8"?>
<svg id="Layer_2" data-name="Layer 2" xmlns="http://www.w3.org/2000/svg" viewBox="0 0 325.36 427.5">
  <defs>
    <style>
      .cls-1, .cls-2 {
        fill: #fff;
      }

      .cls-2 {
        stroke: #000;
        stroke-miterlimit: 10;
        stroke-width: .25px;
      }

      .cls-3 {
        fill: none;
      }
    </style>
  </defs>
  <g id="Layer_8" data-name="Layer 8">
    <path class="cls-2" d="m271.5,278.95c-6.38,9.41-5.33,10.67-8.22,21.78-2.92,11.22.45,17.55-6.67,33.33-7.11,15.78-20.6,11.89-24.22,22.44-2.89,8.44-2.32,16.74-2.04,23.82-.72.41-11.41,6.66-20.84,19.97-9.78,13.77-26.43,13.69-34.47-1.63-3.25-6.19-5.13-9.53-5.08-17.51-.77-5.37-5.66-6.15-7.28-6.13-1.62-.02-6.51.76-7.28,6.13.05,7.98-1.83,11.32-5.08,17.51-8.04,15.32-24.69,15.4-34.47,1.63-9.43-13.31-20.12-19.56-20.84-19.97.28-7.08.85-15.38-2.04-23.82-3.62-10.55-17.11-6.66-24.22-22.44-7.12-15.78-3.75-22.11-6.67-33.33-2.89-11.11-1.84-12.37-8.22-21.78,7.26-5.47-4.18-31.29-5.43-34.06,1.5,2.15,3.04,4.82,4.48,8.12,1.89,4.33,4.64,11.28,7.5,17.22,1.08,2.24,2.86,5.24,4.62,7.9.31.5,10.49,16.48,13.49,38.16,0,0,3.3,8.13,10.64,7.83,2.15-.09,3.11-.64,3.52-1.03,2.26.57,6.35,2.5,8.48,8.94.52,4.7.48,9.76-.53,14.92,2.62-3.11,4.06-7.41,4.38-8.43.01-.06.03-.11.05-.17,0-.01,0-.03.01-.04t.01-.02c.67-2.13,1.16-4.2,1.49-6.2,3.67,2.32,15.35,12.02,10.15,38.05-1.85,2.43-3.51,3.78-3.89,4.09,1.64-1.09,3.21-2.25,4.66-3.43-.38,3.09-.79,8.3.25,11.26.53,1.5,2.57,4.97,2.57,4.97,0,0,6.89,12,17.33,6.44,9.57-5.1,15.22-25.27,16.11-28.63-.01.2-.01.39-.01.56v.03c-.02.84,0,1.38,0,1.38.14.21.29.39.45.54h0c1.74,1.67,3.94-.43,3.94-.43,0,0,.36-.95.54-2.46l1.21-.13.4,1.75c.72.69,1.61.78,2.4.65.79.13,1.68.04,2.4-.65l.4-1.75,1.21.13c.18,1.51.54,2.46.54,2.46,0,0,2.2,2.1,3.94.44h0c.16-.16.31-.34.45-.55,0,0,.02-.54,0-1.38v-.03c0-.17,0-.36-.01-.56.89,3.36,6.54,23.53,16.11,28.63,10.44,5.56,17.33-6.44,17.33-6.44,0,0,2.04-3.47,2.57-4.97,1.04-2.96.63-8.17.25-11.26,1.45,1.18,3.02,2.34,4.66,3.43-.38-.31-2.04-1.66-3.89-4.09-5.2-26.03,6.48-35.73,10.15-38.05.33,2,.82,4.07,1.49,6.2t.01.02s0,.03,0,.04c.02.06.04.11.05.17.32,1.02,1.76,5.32,4.38,8.43-1.01-5.16-1.05-10.22-.53-14.92,2.13-6.44,6.22-8.37,8.48-8.94.41.39,1.37.94,3.52,1.03,7.34.3,10.64-7.83,10.64-7.83,3-21.68,13.18-37.66,13.49-38.16,1.76-2.66,3.54-5.66,4.62-7.9,2.86-5.94,5.61-12.89,7.5-17.22,1.44-3.3,2.98-5.97,4.48-8.12-1.25,2.77-12.69,28.59-5.43,34.06Z"/>
    <path class="cls-2" d="m300.17,197.39c-2.74,13.68-9.33,15.34-9.33,28,0,9.38,5.11,30.78,4,38.23-.67,4.46-1.78,12.44-17.34,17.33-3.33.67-6-2-6-2-7.26-5.47,4.18-31.29,5.43-34.06,4.44-6.39,8.52-8.16,8.52-8.16-1.57-4.03-5.16-3.15-9.25-1.82,1.54-1.64-.41-4.24-2.55-6.29,3.24-2.83,3.02-5.69,1.88-7.92.4-.2,1.75-1.33.81-7.36-1.24-7.96-2.95-21.95-2.95-21.95,8.67-4.88,14.56-13.18,17.98-19.31,2.5-4.48,3.69-7.8,3.69-7.8,0,0,1.06,1.78,2.29,4.87,2.32,5.79,5.23,16.21,2.82,28.24Z"/>
    <path class="cls-2" d="m262.65,228.75c-.08,3.58.67,7.72,4.3,8.09,2.95.3,6.23-.94,9.25-1.93l-13.55-6.16Zm7.16-3.27l3.84,3.14c-1.73-1.66-3.58-2.97-3.84-3.14Z"/>
    <path class="cls-2" d="m178.78,245.56c4.45-.67,7.49-1.85,9.1-1.82,1.17.03,2.39.98,2.04,2.94-.19,1.03-1.11,1.84-1.2,2.34,1.2-.65,4.91-1.88,7.48,2.38,2.13-.19,3.81-.03,5.14.36l.83-1.03s2.21-2.07,6.9-.49c1.94,1.55,3.86,4.11,4.66,8.27,2,10.44.44,31.55,15.55,38.22,5.11,2.25,9.27,1.75,12.52.15,3.19-5.32,7.42-10.62,13-15,.01-.01.02-.02.03-.03,1.7-1.33,3.53-2.59,5.5-3.72,1.76-2.66,3.54-5.66,4.62-7.9,2.86-5.94,5.61-12.89,7.5-17.22,1.44-3.3,2.98-5.97,4.48-8.12,4.44-6.39,8.52-8.16,8.52-8.16-1.57-4.03-5.16-3.15-9.25-1.82-3.02.99-6.3,2.23-9.25,1.93-3.63-.37-4.38-4.51-4.3-8.09l13.55,6.16c1.54-1.64-.41-4.24-2.55-6.29l-3.77-3.09c.17.11.54.38,1.04.76.18.14.38.3.6.48.11.08.23.17.35.28.18.15.37.31.56.47.4.33.81.71,1.22,1.1,3.24-2.83,3.02-5.69,1.88-7.92.4-.2,1.75-1.33.81-7.36-1.24-7.96-2.95-21.95-2.95-21.95,0,0,.37-2.05-2.55-11.55-27.78-14.22-32.23-56.89-32.23-56.89-25.55-6-50.44-44-50.44-44-15.41,3.59-24.6-1.25-25.49-1.75-.89.5-10.08,5.34-25.49,1.75,0,0-24.89,38-50.44,44,0,0-4.45,42.67-32.23,56.89-2.92,9.5-2.55,11.55-2.55,11.55,0,0-1.71,13.99-2.95,21.95-.94,6.03.41,7.16.81,7.36-1.14,2.23-1.36,5.09,1.88,7.92.41-.39.82-.77,1.22-1.1.19-.16.38-.32.56-.47.12-.11.24-.2.35-.28.22-.18.42-.34.6-.48.5-.38.87-.65,1.04-.76l-3.77,3.09c-2.14,2.05-4.09,4.65-2.55,6.29l13.55-6.16c.08,3.58-.67,7.72-4.3,8.09-2.95.3-6.23-.94-9.25-1.93-4.09-1.33-7.68-2.21-9.25,1.82,0,0,4.08,1.77,8.52,8.16,1.5,2.15,3.04,4.82,4.48,8.12,1.89,4.33,4.64,11.28,7.5,17.22,1.08,2.24,2.86,5.24,4.62,7.9,1.97,1.13,3.8,2.39,5.5,3.72.01,0,.02.02.03.03,5.58,4.38,9.81,9.68,13,15,3.25,1.6,7.41,2.1,12.52-.15,15.11-6.67,13.55-27.78,15.55-38.22.8-4.16,2.72-6.72,4.66-8.27,4.69-1.58,6.9.49,6.9.49l.83,1.03c1.33-.39,3.01-.55,5.14-.36,2.57-4.26,6.28-3.03,7.48-2.38-.09-.5-1.01-1.31-1.2-2.34-.35-1.96.87-2.91,2.04-2.94,1.61-.03,4.65,1.15,9.1,1.82m-29.89-.43c-.4.13-.78.32-1.22.51-5.56,2.44-21.78,5.11-38.23-9.56,0,0-4.35-4.55-7.92-8.04-.21-.21-.42-.43-.61-.66-1.2-1.4-1.98-3.1-2.32-4.93-1.06-5.66-3.88-14.08-6.33-20.82-2.02-5.55-3.79-9.97-4.1-10.76,1.04,2.22,16.69,34.45,57.7,36.72.75.04,1.51.15,2.24.35l.4.1c.92.25,1.78.69,2.67,1.04,9.56,3.71,16.23,7.8,19.01,9.57-6.3.34-18.81,4.58-21.29,6.48Zm142.28-22.68c-.34,1.83-1.12,3.53-2.32,4.93-.19.23-.4.45-.61.66-3.57,3.49-7.92,8.04-7.92,8.04-16.45,14.67-32.67,12-38.23,9.56-.44-.19-.82-.38-1.22-.51-2.48-1.9-14.99-6.14-21.29-6.48,2.78-1.77,9.45-5.86,19.01-9.57.89-.35,1.75-.79,2.67-1.04l.4-.1c.73-.2,1.49-.31,2.24-.35,41.01-2.27,56.66-34.5,57.7-36.72-.31.79-2.08,5.21-4.1,10.76-2.45,6.74-5.27,15.16-6.33,20.82Zm-53.28-56.09c-.21,1.06-.46,2.11-.74,3.15.28-1.03.53-2.08.74-3.15Zm-68.76,27.65c-.69-.52-1.37-1.06-2.03-1.62.66.56,1.33,1.11,2.03,1.62Z"/>
    <path class="cls-2" d="m318.67,95.03c-1.18,3.43-2.56,6.89-4.15,10.39-1.63,3.6-3.49,7.22-5.61,10.86-.05.01-.07.01-.07.01,0,0-.11.21-.26.56-6.73,11.45-15.95,22.98-28.41,34.1-.06-.01-.13-.01-.19-.02-29.57-3.23-25.59-36.2-25.59-36.2.95-.62,1.88-1.24,2.8-1.86,62.7-42.67,60.54-99.92,60.54-99.92,0,0,16.24,37.83.94,82.08Z"/>
    <path class="cls-2" d="m260.16,68.2c-1.14,3.36-2.55,6.73-4.26,10.05h0c-3.52,6.88-8.3,13.6-14.69,19.87-1.52,1.5-3.14,2.97-4.85,4.4l-.2.09c-21.37-2.81-15.18-26.11-14.3-29.07.05-.2.09-.31.09-.31C254.62,62.06,257.62.56,257.62.56c0,0,14.11,33.92,2.54,67.64Z"/>
    <path class="cls-2" d="m232.69,306.29c-.04.21-.07.33-.07.33,0,0-6.83,10.99-8.42,25.41-.52,4.7-.48,9.76.53,14.92-2.62-3.11-4.06-7.41-4.38-8.43-.01-.06-.03-.11-.05-.17,0-.01,0-.03,0-.04t-.01-.02c-.67-2.13-1.16-4.2-1.49-6.2-1.09-6.5-.57-12.31.54-17.07,1.92-8.3,5.62-13.4,5.62-13.4,8.98-4.15,8.06,3.02,7.74,4.67Z"/>
    <path class="cls-2" d="m297.35,169.15c-4.36,5.31-16.43,21.01-17.34,33.28l-.67,17c1.22,16,6.78,11.11,6.78,11.11"/>
    <path class="cls-2" d="m179.53,332.27s-.03.43-.1,1.16c-.03.33-.08.72-.14,1.17-.5,3.91-1.93,11.71-5.59,15.17-1.77-3.83-1.11-10.44-.53-14.21.01-.04.01-.07.02-.11.19-1.21.37-2.12.46-2.52h0c.03-.16.05-.24.05-.24,2.29-4.08,5.83-.42,5.83-.42Z"/>
    <path class="cls-2" d="m188.06,331.29s-.03.24-.1.65c-.06.38-.16.9-.28,1.53-.73,3.7-2.59,11.05-6.11,13.09-1.76-3.77-.39-9.34.7-12.61.54-1.61,1.01-2.66,1.01-2.66,0,0,2.09-3.48,4.78,0Z"/>
    <path class="cls-2" d="m171.62,366.81c-.14.21-.29.39-.45.54h0c-1.74,1.67-3.94-.43-3.94-.43,0,0-.36-.95-.54-2.46-.2-1.72-.17-4.17.92-6.75.29-.7.66-1.41,1.12-2.12,2.3.95,2.79,6.27,2.88,9.23v.02c.01.2.01.39.01.56v.03c.02.84,0,1.38,0,1.38Z"/>
    <path class="cls-2" d="m165.53,364.12l-.05.21-.4,1.75c-.72.69-1.61.78-2.4.65-.79.13-1.68.04-2.4-.65l-.4-1.75-.05-.21c0-.18,0-.37.01-.58.09-2.94.83-7.09,2.84-9.19,2.01,2.1,2.75,6.25,2.84,9.19.01.21.01.4.01.58Z"/>
    <path class="cls-2" d="m185.39,373.17c-.5.21-2-1.32-3.6-4.09-.17-.29-.34-.59-.51-.91-.19-.35-.33-.74-.44-1.17-.96-3.63.55-9.6.55-9.6,2.37,3.36,3.52,7.82,3.96,11.15.13.95.2,1.8.23,2.51,0,0,0,.01.01.01.04,1.24-.04,2.04-.2,2.1Z"/>
    <path class="cls-2" d="m178.62,367.56s-.07.1-.11.14c-1.77,2.38-4.28-.03-4.28-.03,0,0-.19-.5-.36-1.36h-.01c-.05-.24-.09-.51-.14-.8-.29-2.17-.26-5.69,2.01-9.17,2.42,1,2.84,6.84,2.89,9.68.02.93,0,1.54,0,1.54Z"/>
    <path class="cls-2" d="m193.73,381.06c-.34-.38-.71-1.2-1.09-2.31-.36-1.02-.73-2.3-1.1-3.71-1.86-7.15-3.7-17.87-3.7-17.87,6.2,3.07,9.46,7.2,11.21,10.66.61,1.19,1.03,2.31,1.34,3.27.35,1.11.55,2.02.67,2.63.56,2.67-5.11,9.89-7.33,7.33Z"/>
    <path class="cls-2" d="m260.33,278.13c-.31.5-10.49,16.48-13.49,38.16,0,0-3.3,8.13-10.64,7.83-2.15-.09-3.11-.64-3.52-1.03-.23-.2-.29-.36-.29-.36,0,0,1.16-9,6.03-19.46.97-2.09,2.09-4.24,3.38-6.39,3.19-5.32,7.42-10.62,13-15,.01-.01.02-.02.03-.03,1.7-1.33,3.53-2.59,5.5-3.72Z"/>
    <path class="cls-2" d="m273.65,228.62s-.07.07-.11.1"/>
    <path class="cls-2" d="m275.53,220.7c-1.29-2.52-3.75-4.25-3.75-4.25"/>
    <path class="cls-2" d="m276.2,234.91c-.07.09-.16.17-.26.25"/>
    <path class="cls-2" d="m273.65,228.62l-3.84-3.14c.26.17,2.11,1.48,3.84,3.14Z"/>
    <path class="cls-2" d="m275.53,220.7c-.06.03-.1.04-.1.04"/>
    <path class="cls-2" d="m276.2,234.91c-3.02.99-6.3,2.23-9.25,1.93-3.63-.37-4.38-4.51-4.3-8.09l13.55,6.16Z"/>
    <path d="m228.17,394.95c-3.82,5.56-15.79,9.26-21.11,13.78-5.98,5.07-12.32,11.98-24.89,16.44-6.58,2.34-18.44,2.33-19.49,2.33s-12.91.01-19.49-2.33c-12.57-4.46-18.91-11.37-24.89-16.44-5.32-4.52-17.29-8.22-21.11-13.78-2.44-3.56-2.41-8.66-2.18-14.63.72.41,11.41,6.66,20.84,19.97,9.78,13.77,26.43,13.69,34.47-1.63,3.25-6.19,5.13-9.53,5.08-17.51.77-5.37,5.66-6.15,7.28-6.13,1.62-.02,6.51.76,7.28,6.13-.05,7.98,1.83,11.32,5.08,17.51,8.04,15.32,24.69,15.4,34.47,1.63,9.43-13.31,20.12-19.56,20.84-19.97.23,5.97.26,11.07-2.18,14.63Z"/>
    <path d="m269.4,190.87c-.31.79-2.08,5.21-4.1,10.76-2.45,6.74-5.27,15.16-6.33,20.82-.34,1.83-1.12,3.53-2.32,4.93-.19.23-.4.45-.61.66-3.57,3.49-7.92,8.04-7.92,8.04-16.45,14.67-32.67,12-38.23,9.56-.44-.19-.82-.38-1.22-.51-2.48-1.9-14.99-6.14-21.29-6.48,2.78-1.77,9.45-5.86,19.01-9.57.89-.35,1.75-.79,2.67-1.04l.4-.1c.73-.2,1.49-.31,2.24-.35,41.01-2.27,56.66-34.5,57.7-36.72Z"/>
    <path class="cls-2" d="m207.62,382.06c-.53,1.5-2.57,4.97-2.57,4.97,0,0-6.89,12-17.33,6.44-9.57-5.1-15.22-25.27-16.11-28.63l2.11.67c.05.29.09.56.14.8h.01c.17.86.36,1.36.36,1.36,0,0,2.51,2.41,4.28.03.04-.04.08-.09.11-.14,0,0,.02-.61,0-1.54.13.03,1.38.3,2.22.98.11.43.25.82.44,1.17.17.32.34.62.51.91,1.6,2.77,3.1,4.3,3.6,4.09.16-.06.24-.86.2-2.1-.01,0-.01-.01-.01-.01-.03-.71-.1-1.56-.23-2.51,0,0,1.87,6.38,6.19,6.49.37,1.41.74,2.69,1.1,3.71.38,1.11.75,1.93,1.09,2.31,2.22,2.56,7.89-4.66,7.33-7.33-.12-.61-.32-1.52-.67-2.63.25-.15,1.72-1.19,3.17-4.05,1.26,1.19,2.72,2.47,4.31,3.75.38,3.09.79,8.3-.25,11.26Z"/>
    <path class="cls-2" d="m178.78,245.56c4.45-.67,7.49-1.85,9.1-1.82,1.17.03,2.39.98,2.04,2.94-.19,1.03-1.11,1.84-1.2,2.34,1.2-.65,4.91-1.88,7.48,2.38,2.13-.19,3.81-.03,5.14.36l.83-1.03s2.21-2.07,6.9-.49c1.94,1.55,3.86,4.11,4.66,8.27,2,10.44.44,31.55,15.55,38.22,5.11,2.25,9.27,1.75,12.52.15-1.29,2.15-2.41,4.3-3.38,6.39-2.03,1.92-4.29,2.7-5.73,3.02.32-1.65,1.24-8.82-7.74-4.67,0,0-3.7,5.1-5.62,13.4-1.41,1.59-3.5,3.49-6.39,5.14l-.1-1.54c-4.45-12.11-14.56-.11-14.56-.11l-1.55,2.33s-1.36,2.45-2.64,6.44h-.01c-.56,1.74-1.1,3.75-1.51,5.98-2.02.7-4.52.28-4.89.21.12-.63.22-1.15.28-1.53.07-.41.1-.65.1-.65-2.69-3.48-4.78,0-4.78,0,0,0-.47,1.05-1.01,2.66-1.45.78-2.69.69-2.98.65.06-.45.11-.84.14-1.17.07-.73.1-1.16.1-1.16,0,0-3.54-3.66-5.83.42,0,0-.02.08-.05.23h0c-.09.41-.27,1.32-.46,2.53-.01.04-.01.07-.02.11-.53.39-3.28.9-3.28.9-.05-1.52-.15-2.49-.15-2.49,0,0-4.11-3.03-5.69,1.38,0,0-.05.89-.04,2.29-.38.15-.86.2-1.33.21-.47-.01-.95-.06-1.33-.21,0-1.4-.04-2.29-.04-2.29-1.58-4.41-5.69-1.38-5.69-1.38,0,0-.1.97-.15,2.49,0,0-2.75-.51-3.28-.9-.01-.04-.01-.07-.02-.11-.19-1.21-.37-2.12-.46-2.52h0c-.03-.16-.05-.24-.05-.24-2.29-4.08-5.83-.42-5.83-.42,0,0,.03.43.1,1.16.03.33.08.72.14,1.17-.29.04-1.53.13-2.98-.65-.54-1.61-1.01-2.66-1.01-2.66,0,0-2.09-3.48-4.78,0,0,0,.03.24.1.65.06.38.16.9.28,1.53-.37.07-2.87.49-4.89-.21-.41-2.23-.95-4.24-1.51-5.97h-.01c-1.28-4-2.64-6.45-2.64-6.45l-1.55-2.33s-10.11-12-14.56.11l-.1,1.54c-2.89-1.65-4.98-3.55-6.39-5.14-1.92-8.3-5.62-13.4-5.62-13.4-8.98-4.15-8.06,3.02-7.74,4.67-1.44-.32-3.7-1.1-5.73-3.02-.97-2.09-2.09-4.24-3.38-6.39,3.25,1.6,7.41,2.1,12.52-.15,15.11-6.67,13.55-27.78,15.55-38.22.8-4.16,2.72-6.72,4.66-8.27,4.69-1.58,6.9.49,6.9.49l.83,1.03c1.33-.39,3.01-.55,5.14-.36,2.57-4.26,6.28-3.03,7.48-2.38-.09-.5-1.01-1.31-1.2-2.34-.35-1.96.87-2.91,2.04-2.94,1.61-.03,4.65,1.15,9.1,1.82"/>
    <path d="m232.68,323.09c-2.26.57-6.35,2.5-8.48,8.94,1.59-14.42,8.42-25.41,8.42-25.41,0,0,.03-.12.07-.33,1.44-.32,3.7-1.1,5.73-3.02-4.87,10.46-6.03,19.46-6.03,19.46,0,0,.06.16.29.36Z"/>
    <path d="m218.79,332.09c-3.67,2.32-15.35,12.02-10.15,38.05-.35-.46-.72-.98-1.08-1.53-2.16-3.28-4.28-8-4.72-14.21-.89-12.78,10.11-34.11,10.11-34.11v-.13c2.88-1.65,4.97-3.55,6.38-5.14-1.11,4.76-1.63,10.57-.54,17.07Z"/>
    <path class="cls-2" d="m212.53,374.23c-1.64-1.09-3.21-2.25-4.66-3.43-1.59-1.28-3.05-2.56-4.31-3.75-1.28-1.19-2.37-2.29-3.22-3.18-1.31-1.37-2.06-2.25-2.06-2.25-7.01-9.89-7.19-20.46-5.71-28.36.41-2.23.95-4.24,1.51-5.97h.01c1.28-4,2.64-6.45,2.64-6.45l1.55-2.33s10.11-12,14.56.11l.1,1.54v.13s-10.99,21.33-10.1,34.11c.44,6.21,2.56,10.93,4.72,14.21.36.55.73,1.07,1.08,1.53,1.85,2.43,3.51,3.78,3.89,4.09Z"/>
    <path class="cls-2" d="m166.9,352.2c-.46-.67-.85-1.46-1.17-2.33-1.47-3.87-1.71-9.22-1.72-12.23-.01-1.4.04-2.29.04-2.29,1.58-4.41,5.69-1.38,5.69-1.38,0,0,.1.97.15,2.49.01.09.01.18.01.28.14,4.06-.07,11.58-3,15.46Z"/>
    <path d="m203.56,367.05c-1.45,2.86-2.92,3.9-3.17,4.05-.31-.96-.73-2.08-1.34-3.27-1.75-3.46-5.01-7.59-11.21-10.66,0,0,1.84,10.72,3.7,17.87-4.32-.11-6.19-6.49-6.19-6.49-.44-3.33-1.59-7.79-3.96-11.15,0,0-1.51,5.97-.55,9.6-.84-.68-2.09-.95-2.22-.98-.05-2.84-.47-8.68-2.89-9.68-2.27,3.48-2.3,7-2.01,9.17l-2.11-.67v-.02c-.09-2.96-.58-8.28-2.88-9.23-.46.71-.83,1.42-1.12,2.12-1.09,2.58-1.12,5.03-.92,6.75l-1.21-.13.05-.21c0-.18,0-.37-.01-.58-.09-2.94-.83-7.09-2.84-9.19-2.01,2.1-2.75,6.25-2.84,9.19-.01.21-.01.4-.01.58l.05.21-1.21.13c.2-1.72.17-4.17-.92-6.75-.29-.7-.66-1.41-1.12-2.12-2.3.95-2.79,6.27-2.88,9.23v.02l-2.11.67c.29-2.17.26-5.69-2.01-9.17-2.42,1-2.84,6.84-2.89,9.68-.13.03-1.38.3-2.22.98.96-3.63-.55-9.6-.55-9.6-2.37,3.36-3.52,7.82-3.96,11.15,0,0-1.87,6.38-6.19,6.49,1.86-7.15,3.7-17.87,3.7-17.87-6.2,3.07-9.46,7.2-11.21,10.66-.61,1.19-1.03,2.31-1.34,3.27-.25-.15-1.72-1.19-3.17-4.05,1.28-1.19,2.37-2.29,3.22-3.18,1.31-1.37,2.06-2.25,2.06-2.25,7.01-9.89,7.19-20.46,5.71-28.36,2.02.7,4.52.28,4.89.21.73,3.7,2.59,11.05,6.11,13.09,1.76-3.77.39-9.34-.7-12.61,1.45.78,2.69.69,2.98.65.5,3.91,1.93,11.71,5.59,15.17,1.77-3.83,1.11-10.44.53-14.21.53.39,3.28.9,3.28.9-.01.09-.01.18-.01.28-.14,4.06.07,11.58,3,15.46.46-.67.85-1.46,1.17-2.33,1.47-3.87,1.71-9.22,1.72-12.23.38.15.86.2,1.33.21.47-.01.95-.06,1.33-.21.01,3.01.25,8.36,1.72,12.23.32.87.71,1.66,1.17,2.33,2.93-3.88,3.14-11.4,3-15.46,0-.1,0-.19-.01-.28,0,0,2.75-.51,3.28-.9-.58,3.77-1.24,10.38.53,14.21,3.66-3.46,5.09-11.26,5.59-15.17.29.04,1.53.13,2.98-.65-1.09,3.27-2.46,8.84-.7,12.61,3.52-2.04,5.38-9.39,6.11-13.09.37.07,2.87.49,4.89-.21-1.48,7.9-1.3,18.47,5.71,28.36,0,0,.75.88,2.06,2.25.85.89,1.94,1.99,3.22,3.18Z"/>
    <path class="cls-2" d="m201.37,251.76c6.97,2.07,4.01,8.75,4.01,8.75,3.44,1.78,7.14,5.86,7.8,12.47.57,5.63-2.5,16-6.39,18.67-4.76,3.26-13.19,2.08-15.44,2.67"/>
    <path d="m200.83,286.46c-.28,1.04-1.03,1.88-2.03,2.24-.89.32-2.31.74-4.56,1.23-5.12,1.13-6.5,3.59-6.5,3.59l-.08.04c3.12-4.53,6.21-8.66,9.18-9.28,3.98-.82,4.25,1.22,3.99,2.18Z"/>
    <path class="cls-2" d="m187.66,293.56c-3.66,5.32-7.34,11.18-10.82,12.5-6.45,2.44-14.22,1.33-14.22,1.33"/>
    <path class="cls-2" d="m284.68,268.71s9.78-21.67,1.11-18.11-11.56,14.67-13.67,19.44c-1.8,4.07-.62,8.91-.62,8.91"/>
    <path class="cls-2" d="m290.46,202.38s9.33-5.56,6.22-16.78c-.73-2.64-5.56.56-7.61,2.89s-6.67,7.78-5.44,27.56c.21,3.33,7.22,9.35,7.22,9.35"/>
    <path class="cls-2" d="m51.74,193.22c-.4,3.24-1.29,10.19-2.11,16.02l2.11-16.02Z"/>
    <path d="m291.37,172.08c-3.42,6.13-9.31,14.43-17.98,19.31,0,0,.37-2.05-2.55-11.55-27.78-14.22-32.23-56.89-32.23-56.89-25.55-6-50.44-44-50.44-44-15.41,3.59-24.6-1.25-25.49-1.75-.89.5-10.08,5.34-25.49,1.75,0,0-24.89,38-50.44,44,0,0-4.45,42.67-32.23,56.89-2.92,9.5-2.55,11.55-2.55,11.55l-.03.25-.03.23-.06.47-.11.88-2.11,16.02-.02.12c0,.09-.03.18-.04.27.62-12.21-4.13-21.37-7.64-26.39-.01-.02-.02-.03-.03-.04-1.28-1.4-2.45-2.84-3.5-4.28h-.01s-.01-.03-.01-.03h-.01c-1.76-2.37-3.21-4.71-4.38-6.81-.02-1.17.2-10.68,11.2-21.13.06-.01.13-.01.19-.02,29.57-3.23,25.59-36.2,25.59-36.2-.95-.62-1.88-1.24-2.8-1.86,1.5-2.4,4.05-5.58,8.4-9.22,1.8-1.5,3.9-3.09,6.37-4.73.39-.27.79-.53,1.21-.8,1.52,1.5,3.14,2.97,4.85,4.4l.2.09c21.37-2.81,15.18-26.11,14.3-29.07-.05-.2-.09-.31-.09-.31,5.73-5.1,16.76-10.94,36-10.5,6.64-4.07,22.16-4.24,23.27-4.25,1.11,0,16.63.18,23.27,4.25,19.24-.44,30.27,5.4,36,10.5,0,0-.04.11-.09.31-.88,2.96-7.07,26.26,14.3,29.07l.2-.09c1.71-1.43,3.33-2.9,4.85-4.4.42.27.82.53,1.21.8,2.47,1.64,4.57,3.23,6.37,4.73,4.35,3.64,6.9,6.82,8.4,9.22-.92.62-1.85,1.24-2.8,1.86,0,0-3.98,32.97,25.59,36.2.06.01.13.01.19.02,11,10.45,11.22,19.96,11.2,21.13Z"/>
    <path class="cls-2" d="m53.86,278.95s-2.67,2.67-6,2c-15.56-4.89-16.67-12.87-17.34-17.33-1.11-7.45,4-28.85,4-38.23,0-12.66-6.59-14.32-9.33-28-2.41-12.03.5-22.45,2.82-28.24,1.23-3.09,2.29-4.87,2.29-4.87,0,0,1.19,3.32,3.69,7.8,1.17,2.1,2.62,4.44,4.38,6.81h.01s0,.01.01.02h.01c1.05,1.45,2.22,2.89,3.5,4.29.01.01.02.02.03.04,3.51,5.02,8.26,14.18,7.64,26.39v.05c-.19,1.3-.38,2.54-.55,3.66-.94,6.03.41,7.16.81,7.36-1.14,2.23-1.36,5.09,1.88,7.92-2.14,2.05-4.09,4.65-2.55,6.29-4.09-1.33-7.68-2.21-9.25,1.82,0,0,4.08,1.77,8.52,8.16,1.25,2.77,12.69,28.59,5.43,34.06Z"/>
    <path class="cls-2" d="m62.71,228.75l-13.55,6.16c3.02.99,6.3,2.23,9.25,1.93,3.63-.37,4.38-4.51,4.3-8.09Zm-11-.13l3.84-3.14c-.26.17-2.11,1.48-3.84,3.14Z"/>
    <path class="cls-2" d="m45.38,150.93c-.06.01-.13.01-.19.02-12.46-11.12-21.68-22.65-28.41-34.1-.15-.35-.26-.56-.26-.56,0,0-.02,0-.07-.01-2.12-3.64-3.98-7.26-5.61-10.86-1.59-3.5-2.97-6.96-4.15-10.39-15.3-44.25.94-82.08.94-82.08,0,0-2.16,57.25,60.54,99.92.92.62,1.85,1.24,2.8,1.86,0,0,3.98,32.97-25.59,36.2Z"/>
    <path class="cls-2" d="m89.2,102.61l-.2-.09c-1.71-1.43-3.33-2.9-4.85-4.4-6.39-6.27-11.17-12.99-14.69-19.86h0c-1.71-3.33-3.12-6.7-4.26-10.06C53.63,34.48,67.74.56,67.74.56c0,0,3,61.5,35.67,72.67,0,0,.04.11.09.31.88,2.96,7.07,26.26-14.3,29.07Z"/>
    <path class="cls-2" d="m106.57,332.09c-.33,2-.82,4.07-1.49,6.2t-.01.02s-.01.03-.01.04c-.02.06-.04.11-.05.17-.32,1.02-1.76,5.32-4.38,8.43,1.01-5.16,1.05-10.22.53-14.92-1.59-14.42-8.42-25.41-8.42-25.41,0,0-.03-.12-.07-.33-.32-1.65-1.24-8.82,7.74-4.67,0,0,3.7,5.1,5.62,13.4,1.11,4.76,1.63,10.57.54,17.07Z"/>
    <path class="cls-2" d="m28.01,169.15c4.36,5.31,16.43,21.01,17.34,33.28l.67,17c-1.22,16-6.78,11.11-6.78,11.11"/>
    <path class="cls-2" d="m151.66,349.77c-3.66-3.46-5.09-11.26-5.59-15.17-.06-.45-.11-.84-.14-1.17-.07-.73-.1-1.16-.1-1.16,0,0,3.54-3.66,5.83.42,0,0,.02.08.05.23h0c.09.41.27,1.32.46,2.53.01.04.01.07.02.11.58,3.77,1.24,10.38-.53,14.21Z"/>
    <path class="cls-2" d="m143.79,346.56c-3.52-2.04-5.38-9.39-6.11-13.09-.12-.63-.22-1.15-.28-1.53-.07-.41-.1-.65-.1-.65,2.69-3.48,4.78,0,4.78,0,0,0,.47,1.05,1.01,2.66,1.09,3.27,2.46,8.84.7,12.61Z"/>
    <path class="cls-2" d="m158.67,364.46c-.18,1.51-.54,2.46-.54,2.46,0,0-2.2,2.1-3.94.44h0c-.16-.16-.31-.34-.45-.55,0,0-.02-.54,0-1.38v-.03c0-.17,0-.36.01-.56v-.02c.09-2.96.58-8.28,2.88-9.23.46.71.83,1.42,1.12,2.12,1.09,2.58,1.12,5.03.92,6.75Z"/>
    <path class="cls-2" d="m144.52,367c-.11.43-.25.82-.44,1.17-.17.32-.34.62-.51.91-1.6,2.77-3.1,4.3-3.6,4.09-.16-.06-.24-.86-.2-2.1.01,0,.01-.01.01-.01.03-.71.1-1.56.23-2.51.44-3.33,1.59-7.79,3.96-11.15,0,0,1.51,5.97.55,9.6Z"/>
    <path class="cls-2" d="m151.64,365.51c-.05.29-.09.56-.14.8h-.01c-.17.86-.36,1.36-.36,1.36,0,0-2.51,2.41-4.28.03-.04-.04-.08-.09-.11-.14,0,0-.02-.61,0-1.54.05-2.84.47-8.68,2.89-9.68,2.27,3.48,2.3,7,2.01,9.17Z"/>
    <path class="cls-2" d="m137.52,357.17s-1.84,10.72-3.7,17.87c-.37,1.41-.74,2.69-1.1,3.71-.38,1.11-.75,1.93-1.09,2.31-2.22,2.56-7.89-4.66-7.33-7.33.12-.61.32-1.52.67-2.63.31-.96.73-2.08,1.34-3.27,1.75-3.46,5.01-7.59,11.21-10.66Z"/>
    <path class="cls-2" d="m92.97,322.73s-.06.16-.29.36c-.41.39-1.37.94-3.52,1.03-7.34.3-10.64-7.83-10.64-7.83-3-21.68-13.18-37.66-13.49-38.16,1.97,1.13,3.8,2.39,5.5,3.72.01,0,.02.02.03.03,5.58,4.38,9.81,9.68,13,15,1.29,2.15,2.41,4.3,3.38,6.39,4.87,10.46,6.03,19.46,6.03,19.46Z"/>
    <path class="cls-2" d="m51.82,228.72s-.07-.06-.11-.1"/>
    <path class="cls-2" d="m53.58,216.45s-2.46,1.73-3.75,4.25"/>
    <path class="cls-2" d="m49.42,235.16c-.1-.08-.19-.16-.26-.25"/>
    <path class="cls-2" d="m55.55,225.48l-3.84,3.14c1.73-1.66,3.58-2.97,3.84-3.14Z"/>
    <path class="cls-2" d="m49.93,220.74s-.04-.01-.1-.04"/>
    <path class="cls-2" d="m58.41,236.84c-2.95.3-6.23-.94-9.25-1.93l13.55-6.16c.08,3.58-.67,7.72-4.3,8.09Z"/>
    <path d="m137.98,238.65c-6.3.34-18.81,4.58-21.29,6.48-.4.13-.78.32-1.22.51-5.56,2.44-21.78,5.11-38.23-9.56,0,0-4.35-4.55-7.92-8.04-.21-.21-.42-.43-.61-.66-1.2-1.4-1.98-3.1-2.32-4.93-1.06-5.66-3.88-14.08-6.33-20.82-2.02-5.55-3.79-9.97-4.1-10.76,1.04,2.22,16.69,34.45,57.7,36.72.75.04,1.51.15,2.24.35l.4.1c.92.25,1.78.69,2.67,1.04,9.56,3.71,16.23,7.8,19.01,9.57Z"/>
    <path class="cls-2" d="m153.75,364.84c-.89,3.36-6.54,23.53-16.11,28.63-10.44,5.56-17.33-6.44-17.33-6.44,0,0-2.04-3.47-2.57-4.97-1.04-2.96-.63-8.17-.25-11.26,1.59-1.28,3.05-2.56,4.31-3.75,1.45,2.86,2.92,3.9,3.17,4.05-.35,1.11-.55,2.02-.67,2.63-.56,2.67,5.11,9.89,7.33,7.33.34-.38.71-1.2,1.09-2.31.36-1.02.73-2.3,1.1-3.71,4.32-.11,6.19-6.49,6.19-6.49-.13.95-.2,1.8-.23,2.51,0,0,0,.01-.01.01-.04,1.24.04,2.04.2,2.1.5.21,2-1.32,3.6-4.09.17-.29.34-.59.51-.91.19-.35.33-.74.44-1.17.84-.68,2.09-.95,2.22-.98-.02.93,0,1.54,0,1.54.03.05.07.1.11.14,1.77,2.38,4.28-.03,4.28-.03,0,0,.19-.5.36-1.36h.01c.05-.24.09-.51.14-.8l2.11-.67Z"/>
    <path d="m101.16,332.03c-2.13-6.44-6.22-8.37-8.48-8.94.23-.2.29-.36.29-.36,0,0-1.16-9-6.03-19.46,2.03,1.92,4.29,2.7,5.73,3.02.04.21.07.33.07.33,0,0,6.83,10.99,8.42,25.41Z"/>
    <path d="m122.52,354.4c-.44,6.21-2.56,10.93-4.72,14.21-.36.55-.73,1.07-1.08,1.53,5.2-26.03-6.48-35.73-10.15-38.05,1.09-6.5.57-12.31-.54-17.07,1.41,1.59,3.5,3.49,6.39,5.14v.13s10.99,21.33,10.1,34.11Z"/>
    <path class="cls-2" d="m127.08,361.62s-.75.88-2.06,2.25c-.85.89-1.94,1.99-3.22,3.18-1.26,1.19-2.72,2.47-4.31,3.75-1.45,1.18-3.02,2.34-4.66,3.43.38-.31,2.04-1.66,3.89-4.09.35-.46.72-.98,1.08-1.53,2.16-3.28,4.28-8,4.72-14.21.89-12.78-10.11-34.11-10.11-34.11v-.13s.11-1.54.11-1.54c4.45-12.11,14.56-.11,14.56-.11l1.55,2.33s1.36,2.45,2.64,6.44h.01c.56,1.74,1.1,3.75,1.51,5.98,1.48,7.9,1.3,18.47-5.71,28.36Z"/>
    <path class="cls-2" d="m161.35,337.64c-.01,3.01-.25,8.36-1.72,12.23-.32.87-.71,1.66-1.17,2.33-2.93-3.88-3.14-11.4-3-15.46,0-.1,0-.19.01-.28.05-1.52.15-2.49.15-2.49,0,0,4.11-3.03,5.69,1.38,0,0,.05.89.04,2.29Z"/>
    <path class="cls-2" d="m134.02,294.32c-2.25-.59-10.68.59-15.44-2.67-3.89-2.67-6.96-13.04-6.39-18.67.66-6.61,4.36-10.69,7.8-12.47,0,0-2.96-6.68,4.01-8.75"/>
    <path d="m137.72,293.57l-.1-.05s-1.37-2.46-6.5-3.59c-2.25-.49-3.67-.91-4.55-1.23-1.01-.36-1.75-1.2-2.03-2.24-.26-.96,0-3,3.99-2.18,2.96.62,6.07,4.76,9.19,9.29Z"/>
    <path class="cls-2" d="m162.74,307.39c-.35.05-7.92,1.05-14.21-1.33-3.48-1.32-7.16-7.17-10.81-12.49"/>
    <path class="cls-2" d="m40.68,268.71s-9.78-21.67-1.11-18.11,11.56,14.67,13.67,19.44c1.8,4.07.62,8.91.62,8.91"/>
    <path class="cls-2" d="m34.9,202.38s-9.33-5.56-6.22-16.78c.73-2.64,5.56.56,7.61,2.89s6.67,7.78,5.44,27.56c-.21,3.33-7.22,9.35-7.22,9.35"/>
    <circle class="cls-1" cx="104.49" cy="236.91" r="4.67"/>
    <path d="m206.58,157.21c0,.51-.01,1.01-.03,1.52,0,.24,0,.48-.03.72-.02.51-.05,1.02-.09,1.53-.04.54-.1,1.09-.16,1.63-.05.46-.11.92-.18,1.38,0,.05-.01.09-.02.14-.04.32-.09.65-.16.97-.06.42-.14.84-.22,1.26-.21,1.06-.46,2.11-.74,3.15-.14.51-.29,1.02-.44,1.52-.03.09-.06.18-.08.27-.17.51-.33,1.01-.51,1.51h0c-.18.51-.36,1.01-.56,1.5-.03.08-.06.16-.09.24-.19.45-.37.91-.57,1.35-.29.67-.6,1.33-.92,1.98-.19.4-.39.79-.6,1.17-.26.5-.54.99-.82,1.48-.28.49-.57.97-.87,1.44-.3.48-.6.95-.92,1.41-.23.34-.47.67-.71,1-.18.26-.37.51-.56.76-.46.61-.93,1.21-1.42,1.79-.23.28-.46.55-.7.82-.26.29-.52.58-.77.86-.38.41-.77.81-1.16,1.2-.39.4-.79.78-1.19,1.16-.36.34-.72.66-1.09.98-.47.41-.95.81-1.43,1.2-.36.29-.73.58-1.11.87-.17.12-.35.25-.52.38-.32.24-.65.47-.98.7-.05.03-.09.05-.12.08-.33.22-.66.44-.99.65-.22.15-.44.28-.66.42-.34.21-.69.42-1.04.62-.04.03-.08.05-.12.07-.3.18-.61.35-.93.52-.13.08-.27.15-.4.22-.14.08-.28.16-.43.22-.37.2-.74.39-1.12.57-.5.24-1.01.47-1.52.69-.51.23-1.03.44-1.55.64-.3.12-.6.23-.9.34s-.61.22-.91.32c-.29.1-.59.19-.88.29-.95.3-1.91.56-2.88.8-.31.07-.63.14-.95.21-.63.13-1.26.26-1.9.36-.32.06-.64.11-.97.15-.32.05-.64.09-.96.13-.38.05-.76.09-1.14.12-.28.03-.57.05-.86.07-.25.02-.51.04-.76.05-.29.02-.58.03-.88.04-.46.02-.92.03-1.38.03-.38,0-.76-.01-1.13-.02-.38-.01-.76-.03-1.13-.05-.27-.01-.54-.03-.81-.05-.23-.02-.46-.04-.69-.06-.24-.02-.49-.04-.73-.07-.24-.02-.48-.05-.72-.08-.21-.03-.42-.06-.62-.09-.32-.04-.64-.09-.95-.14-.61-.1-1.21-.21-1.8-.33-.34-.08-.68-.15-1.01-.23-.26-.06-.51-.12-.77-.18-2.2-.56-4.33-1.29-6.38-2.17-.29-.12-.58-.25-.86-.38-.27-.12-.54-.25-.81-.37-.03-.02-.07-.04-.11-.06-.25-.12-.51-.25-.76-.38-1.11-.56-2.19-1.17-3.24-1.83-.27-.16-.53-.33-.79-.5-.26-.17-.52-.34-.77-.51-.57-.39-1.12-.79-1.67-1.2-.69-.52-1.37-1.06-2.03-1.62-.47-.4-.94-.81-1.39-1.23-.39-.36-.76-.71-1.13-1.07-.1-.11-.2-.21-.31-.31-.39-.4-.79-.81-1.18-1.23,0,0-.01-.02-.02-.03-.39-.43-.78-.87-1.15-1.31-.08-.09-.16-.18-.24-.28-.3-.36-.6-.73-.89-1.1-.45-.57-.88-1.15-1.3-1.75-.35-.48-.69-.97-1.01-1.47h-.01c-.33-.52-.66-1.05-.98-1.58,0-.01-.01-.02-.02-.04-.32-.53-.63-1.07-.92-1.62-.27-.49-.53-.99-.77-1.49-.38-.77-.74-1.55-1.07-2.34-.19-.42-.36-.84-.52-1.26-.02-.04-.04-.09-.06-.13-.21-.55-.41-1.1-.6-1.65-.03-.08-.06-.15-.08-.23-.18-.52-.35-1.04-.5-1.56-.04-.12-.07-.24-.1-.36-.17-.55-.32-1.11-.46-1.68-.01-.03-.02-.07-.03-.11-.13-.53-.25-1.06-.36-1.59-.02-.07-.04-.13-.05-.2-.1-.5-.2-1.01-.28-1.52-.07-.37-.13-.75-.18-1.12-.05-.29-.09-.58-.12-.87-.04-.31-.08-.62-.11-.93-.06-.54-.11-1.08-.15-1.63-.03-.38-.05-.77-.07-1.15-.01-.11-.01-.22-.01-.34-.04-.66-.05-1.33-.05-2,0-25.07,19.64-45.41,43.9-45.5,24.26.09,43.9,20.43,43.9,45.5Z"/>
    <circle class="cls-1" cx="218.68" cy="236.9" r="4.67"/>
    <path d="m276.2,212.44s-2.34-17.8,7.71-29.74-9.46,0-9.46,0l-1.06,8.69,2.81,21.05Z"/>
    <path d="m273.39,191.39l2.81,21.05s-2.34-17.8,7.71-29.74"/>
    <path class="cls-3" d="m38.39,178.91l-.02-.02h.01s0,.01.01.02Z"/>
    <path class="cls-3" d="m49.61,209.36l-.04.32v-.05c.01-.09.03-.18.04-.27Z"/>
  </g>
</svg>